<?xml version="1.0" encoding="UTF-8"?>
<svg version="1.1" xmlns="http://www.w3.org/2000/svg" width="500" height="500">
<path d="M0 0 C1.66071533 0.98577026 1.66071533 0.98577026 3.35498047 1.99145508 C4.26508377 2.52830681 4.26508377 2.52830681 5.193573 3.07600403 C7.12297626 4.21568416 9.04764099 5.36309505 10.97216797 6.51098633 C12.24008239 7.26216888 13.50830936 8.01282415 14.77685547 8.76293945 C15.40001648 9.13202423 16.02317749 9.50110901 16.66522217 9.88137817 C17.91286061 10.61914272 19.16159519 11.35505684 20.41143799 12.08908081 C23.39087112 13.84337112 26.33837785 15.62612369 29.24072266 17.50561523 C30.28389648 18.16352051 31.32707031 18.82142578 32.40185547 19.49926758 C33.31177246 20.09263916 34.22168945 20.68601074 35.15917969 21.29736328 C38.72428964 22.65832215 40.39533162 21.72844322 43.84716797 20.32348633 C46.15966797 20.88598633 46.15966797 20.88598633 47.84716797 22.32348633 C48.78297108 25.20288052 49.21961903 26.57858421 47.84716797 29.32348633 C48.63091797 29.63286133 49.41466797 29.94223633 50.22216797 30.26098633 C52.84716797 31.32348633 52.84716797 31.32348633 54.84716797 32.32348633 C55.18748047 31.11692383 55.18748047 31.11692383 55.53466797 29.88598633 C56.84716797 27.32348633 56.84716797 27.32348633 59.22216797 26.26098633 C61.84716797 26.32348633 61.84716797 26.32348633 64.15966797 28.13598633 C65.84716797 30.32348633 65.84716797 30.32348633 65.84716797 32.32348633 C66.79462891 32.84966553 66.79462891 32.84966553 67.76123047 33.38647461 C81.51418932 41.03333772 95.18085848 48.80438672 108.75732422 56.76098633 C118.30495584 62.35526555 127.9013792 67.86523573 137.49023438 73.38842773 C140.979095 75.39953387 144.46611625 77.41379628 147.95263672 79.42895508 C149.12922009 80.10874418 150.30581502 80.78851327 151.48242188 81.46826172 C153.69985174 82.74946799 155.91699356 84.031173 158.13378906 85.31347656 C159.14393066 85.89685791 160.15407227 86.48023926 161.19482422 87.08129883 C162.15404785 87.64365234 163.11327148 88.20600586 164.1015625 88.78540039 C166.78566403 90.33867681 166.78566403 90.33867681 169.44824219 91.51000977 C175.3727646 94.27599475 175.3727646 94.27599475 176.88232422 97.60913086 C177.14787109 98.46361816 177.41341797 99.31810547 177.68701172 100.19848633 C179.60391409 106.04791337 182.95356818 107.88185784 188.22802734 110.72583008 C189.80293945 111.51666992 189.80293945 111.51666992 191.40966797 112.32348633 C193.494308 113.42764429 195.57894361 114.53181058 197.66357422 115.63598633 C198.585979 116.10649414 199.50838379 116.57700195 200.45874023 117.06176758 C202.84716797 118.32348633 202.84716797 118.32348633 205.84716797 120.32348633 C206.23111464 123.09610887 206.45059045 125.66672161 206.53466797 128.44848633 C206.56882812 129.20258789 206.60298828 129.95668945 206.63818359 130.73364258 C206.72071075 132.59639833 206.78561508 134.45991959 206.84716797 136.32348633 C208.82716797 136.65348633 210.80716797 136.98348633 212.84716797 137.32348633 C214.17557805 142.75789119 214.17557805 142.75789119 212.72216797 145.26098633 C210.84716797 146.32348633 210.84716797 146.32348633 205.84716797 145.32348633 C206.17716797 210.99348633 206.50716797 276.66348633 206.84716797 344.32348633 C208.49716797 344.65348633 210.14716797 344.98348633 211.84716797 345.32348633 C212.50716797 345.98348633 213.16716797 346.64348633 213.84716797 347.32348633 C213.47216797 350.44848633 213.47216797 350.44848633 212.84716797 353.32348633 C210.86716797 353.65348633 208.88716797 353.98348633 206.84716797 354.32348633 C207.15654297 355.81235352 207.15654297 355.81235352 207.47216797 357.33129883 C208.0411198 362.0247156 208.17508295 366.08599006 205.84716797 370.32348633 C199.65605527 375.79710737 191.90658324 379.32126293 184.48852539 382.83813477 C181.72589522 384.39168333 179.86930855 385.88865203 177.84716797 388.32348633 C177.66412109 389.42563477 177.48107422 390.5277832 177.29248047 391.66333008 C174.98464371 397.50777074 170.1324634 399.11302378 164.72216797 401.88598633 C162.42281209 403.1168597 160.12466268 404.34998913 157.82763672 405.58520508 C157.24152115 405.8965741 156.65540558 406.20794312 156.05152893 406.52874756 C150.28475003 409.59493345 144.65719969 412.87745942 139.03466797 416.19848633 C130.38013745 421.27769791 121.69000899 426.29142046 112.97216797 431.26098633 C100.42458277 438.41455514 87.89781453 445.60352526 75.40673828 452.85546875 C73.81740484 453.76701606 72.219168 454.66343616 70.60791016 455.53564453 C66.5324522 457.74586048 65.47110321 459.03165748 63.84716797 463.32348633 C61.40966797 464.32348633 61.40966797 464.32348633 58.84716797 464.32348633 C56.30872788 462.51031484 55.85227772 461.33881557 54.84716797 458.32348633 C54.06341797 458.81848633 53.27966797 459.31348633 52.47216797 459.82348633 C49.84716797 461.32348633 49.84716797 461.32348633 47.84716797 461.32348633 C48.05341797 462.08661133 48.25966797 462.84973633 48.47216797 463.63598633 C48.84716797 466.32348633 48.84716797 466.32348633 46.84716797 469.32348633 C45.03466797 470.13598633 45.03466797 470.13598633 42.84716797 470.32348633 C42.09064941 469.94168213 41.33413086 469.55987793 40.5546875 469.16650391 C37.84098102 468.02035253 37.84098102 468.02035253 35.19433594 469.29882812 C34.25219238 469.86770752 33.31004883 470.43658691 32.33935547 471.02270508 C31.2787793 471.65055908 30.21820313 472.27841309 29.12548828 472.92529297 C27.44084473 473.95771118 27.44084473 473.95771118 25.72216797 475.01098633 C24.55769997 475.70371863 23.39199809 476.39438083 22.22509766 477.08300781 C16.82231052 480.28126584 11.46708548 483.55546739 6.12060547 486.84692383 C5.2648291 487.36424072 4.40905273 487.88155762 3.52734375 488.41455078 C1.94380818 489.37335818 0.37107991 490.35031972 -1.18847656 491.34765625 C-2.24591064 491.98731323 -2.24591064 491.98731323 -3.32470703 492.63989258 C-4.22334473 493.20365601 -4.22334473 493.20365601 -5.14013672 493.77880859 C-9.024206 494.82991953 -12.35188835 492.73813118 -15.76733398 490.9699707 C-17.06610474 490.20136719 -17.06610474 490.20136719 -18.39111328 489.41723633 C-19.36830322 488.84231445 -20.34549316 488.26739258 -21.35229492 487.67504883 C-22.89324829 486.75852539 -22.89324829 486.75852539 -24.46533203 485.82348633 C-25.52679443 485.2021582 -26.58825684 484.58083008 -27.68188477 483.94067383 C-32.58723469 481.06340137 -37.46058423 478.15228909 -42.26220703 475.10473633 C-43.02235107 474.63100586 -43.78249512 474.15727539 -44.56567383 473.66918945 C-45.95962017 472.79656796 -47.34229101 471.90556482 -48.71069336 470.9934082 C-51.17559672 469.46238852 -53.20619626 468.22806581 -56.16796875 468.52661133 C-58.3323638 469.09271501 -58.3323638 469.09271501 -61.15283203 470.32348633 C-63.21533203 468.63598633 -63.21533203 468.63598633 -65.15283203 466.32348633 C-64.90283203 463.57348633 -64.90283203 463.57348633 -64.15283203 461.32348633 C-64.93658203 461.01411133 -65.72033203 460.70473633 -66.52783203 460.38598633 C-69.15283203 459.32348633 -69.15283203 459.32348633 -71.15283203 458.32348633 C-71.49314453 459.53004883 -71.49314453 459.53004883 -71.84033203 460.76098633 C-73.15283203 463.32348633 -73.15283203 463.32348633 -75.52783203 464.38598633 C-78.15283203 464.32348633 -78.15283203 464.32348633 -80.46533203 462.51098633 C-82.15283203 460.32348633 -82.15283203 460.32348633 -82.15283203 458.32348633 C-82.78447266 457.9727002 -83.41611328 457.62191406 -84.06689453 457.26049805 C-97.81985338 449.61363494 -111.48652254 441.84258594 -125.06298828 433.88598633 C-134.61061991 428.2917071 -144.20704326 422.78173692 -153.79589844 417.25854492 C-157.28475906 415.24743879 -160.77178031 413.23317637 -164.25830078 411.21801758 C-165.43488415 410.53822847 -166.61147908 409.85845938 -167.78808594 409.17871094 C-170.00551581 407.89750466 -172.22265762 406.61579966 -174.43945312 405.33349609 C-175.95466553 404.45842407 -175.95466553 404.45842407 -177.50048828 403.56567383 C-178.45842285 403.00460937 -179.41635742 402.44354492 -180.40332031 401.86547852 C-183.09850321 400.30752249 -183.09850321 400.30752249 -185.7890625 399.10180664 C-191.78593604 396.26595393 -191.78593604 396.26595393 -192.94995117 393.27587891 C-193.12002686 392.51686279 -193.29010254 391.75784668 -193.46533203 390.97583008 C-194.60998118 386.37338664 -196.59419382 384.92093726 -200.59033203 382.45239258 C-202.76237252 381.23557428 -204.95066167 380.04738736 -207.15283203 378.88598633 C-208.25884766 378.27561523 -209.36486328 377.66524414 -210.50439453 377.03637695 C-212.54806018 375.90888015 -214.59822836 374.79303256 -216.65673828 373.69287109 C-219.15283203 372.32348633 -219.15283203 372.32348633 -222.15283203 370.32348633 C-222.53677871 367.55086378 -222.75625451 364.98025105 -222.84033203 362.19848633 C-222.87449219 361.44438477 -222.90865234 360.6902832 -222.94384766 359.91333008 C-223.02637481 358.05057432 -223.09127914 356.18705306 -223.15283203 354.32348633 C-225.13283203 353.99348633 -227.11283203 353.66348633 -229.15283203 353.32348633 C-229.84033203 350.51098633 -229.84033203 350.51098633 -230.15283203 347.32348633 C-228.96533203 345.44848633 -228.96533203 345.44848633 -227.15283203 344.32348633 C-225.83283203 344.32348633 -224.51283203 344.32348633 -223.15283203 344.32348633 C-223.15283203 278.98348633 -223.15283203 213.64348633 -223.15283203 146.32348633 C-224.80283203 145.99348633 -226.45283203 145.66348633 -228.15283203 145.32348633 C-228.81283203 144.66348633 -229.47283203 144.00348633 -230.15283203 143.32348633 C-229.77783203 140.19848633 -229.77783203 140.19848633 -229.15283203 137.32348633 C-227.17283203 136.99348633 -225.19283203 136.66348633 -223.15283203 136.32348633 C-223.35908203 135.3309082 -223.56533203 134.33833008 -223.77783203 133.31567383 C-224.34678387 128.62225706 -224.48074701 124.56098259 -222.15283203 120.32348633 C-215.96171933 114.84986529 -208.2122473 111.32570973 -200.79418945 107.80883789 C-198.03018105 106.25451428 -196.18075314 104.75495062 -194.15283203 102.32348633 C-193.76998047 100.60838867 -193.76998047 100.60838867 -193.37939453 98.85864258 C-191.66142718 93.90717616 -189.07283789 92.97146306 -184.52783203 90.76098633 C-182.87509855 89.90094845 -181.22414449 89.03748499 -179.57470703 88.17114258 C-178.25116211 87.4849585 -178.25116211 87.4849585 -176.90087891 86.78491211 C-172.10816558 84.23612196 -167.45160592 81.45752059 -162.77783203 78.69848633 C-153.93708048 73.51256664 -145.05876345 68.39627429 -136.15283203 63.32348633 C-126.20960055 57.6592851 -116.29861233 51.94322879 -106.43554688 46.14013672 C-102.05049746 43.56620601 -97.65798341 41.03057462 -93.17626953 38.62817383 C-92.42571289 38.22268311 -91.67515625 37.81719238 -90.90185547 37.39941406 C-89.53980827 36.66938808 -88.17110375 35.95157283 -86.79443359 35.24951172 C-82.87745235 33.14624451 -81.44922413 31.55645721 -80.15283203 27.32348633 C-77.22366642 26.00063734 -76.27460598 26.28289501 -73.15283203 27.32348633 C-71.96533203 29.88598633 -71.96533203 29.88598633 -71.15283203 32.32348633 C-70.36908203 31.82848633 -69.58533203 31.33348633 -68.77783203 30.82348633 C-66.15283203 29.32348633 -66.15283203 29.32348633 -64.15283203 29.32348633 C-64.35908203 28.56036133 -64.56533203 27.79723633 -64.77783203 27.01098633 C-65.15283203 24.32348633 -65.15283203 24.32348633 -63.15283203 21.32348633 C-61.34033203 20.51098633 -61.34033203 20.51098633 -59.15283203 20.32348633 C-58.39631348 20.70529053 -57.63979492 21.08709473 -56.86035156 21.48046875 C-54.14664508 22.62662012 -54.14664508 22.62662012 -51.5 21.34814453 C-50.08678467 20.49482544 -50.08678467 20.49482544 -48.64501953 19.62426758 C-47.58444336 18.99641357 -46.52386719 18.36855957 -45.43115234 17.72167969 C-44.30805664 17.03340088 -43.18496094 16.34512207 -42.02783203 15.63598633 C-40.86336404 14.94325403 -39.69766216 14.25259183 -38.53076172 13.56396484 C-33.12797458 10.36570681 -27.77274955 7.09150526 -22.42626953 3.80004883 C-21.14260498 3.02407349 -21.14260498 3.02407349 -19.83300781 2.23242188 C-18.24947224 1.27361447 -16.67674397 0.29665294 -15.1171875 -0.70068359 C-14.41223145 -1.12712158 -13.70727539 -1.55355957 -12.98095703 -1.99291992 C-12.08231934 -2.55668335 -12.08231934 -2.55668335 -11.16552734 -3.13183594 C-7.06865771 -4.24053513 -3.5619401 -1.89405627 0 0 Z M-15.23095703 5.06958008 C-16.71499023 5.94912354 -16.71499023 5.94912354 -18.22900391 6.84643555 C-19.27636719 7.4782373 -20.32373047 8.11003906 -21.40283203 8.76098633 C-23.56370059 10.04453182 -25.72516119 11.32708113 -27.88720703 12.60864258 C-28.94875 13.24044434 -30.01029297 13.87224609 -31.10400391 14.52319336 C-35.25441444 16.97395627 -39.44445557 19.34902162 -43.65283203 21.69848633 C-44.32217773 22.07287842 -44.99152344 22.44727051 -45.68115234 22.83300781 C-47.17072692 23.66493401 -48.66159917 24.4945363 -50.15283203 25.32348633 C-47.04121698 28.43510137 -43.18232786 29.0385831 -38.89892578 29.63989258 C-34.84362974 29.17263941 -31.96238262 27.25239397 -28.52783203 25.13598633 C-27.86009766 24.74862305 -27.19236328 24.36125977 -26.50439453 23.9621582 C-22.48416865 21.52992155 -20.43823129 19.52447915 -18.15283203 15.32348633 C-15.46533203 15.01098633 -15.46533203 15.01098633 -13.15283203 15.32348633 C-12.16283203 17.79848633 -12.16283203 17.79848633 -11.15283203 20.32348633 C-12.27783203 21.82348633 -12.27783203 21.82348633 -14.15283203 23.32348633 C-15.03197266 23.26032227 -15.91111328 23.1971582 -16.81689453 23.13208008 C-21.34617991 23.39195711 -23.75062802 25.36357714 -27.40283203 27.88598633 C-35.39417522 33.04330435 -35.39417522 33.04330435 -40.65283203 32.51098633 C-43.01220703 31.99926758 -43.01220703 31.99926758 -45.15283203 31.32348633 C-51.21227251 29.50565419 -54.95665902 28.81484388 -60.83984375 31.59179688 C-61.74492676 32.12587158 -62.65000977 32.65994629 -63.58251953 33.21020508 C-65.12770264 34.11234741 -65.12770264 34.11234741 -66.70410156 35.03271484 C-67.80093262 35.68554443 -68.89776367 36.33837402 -70.02783203 37.01098633 C-71.18860544 37.6927843 -72.34991011 38.37367853 -73.51171875 39.05371094 C-75.89946495 40.45303984 -78.28419198 41.8573091 -80.66650391 43.26586914 C-84.87733768 45.75419474 -89.10514864 48.21310421 -93.33300781 50.67236328 C-96.29828639 52.39788892 -99.26109617 54.12757851 -102.22314453 55.85864258 C-109.1951863 59.93313781 -116.17083511 64.00143952 -123.14672852 68.06933594 C-128.18556992 71.00800961 -133.22315825 73.94879133 -138.25830078 76.89379883 C-140.28556576 78.07882942 -142.31290893 79.26372627 -144.34033203 80.44848633 C-145.32211426 81.02244141 -146.30389648 81.59639648 -147.31542969 82.18774414 C-152.28144253 85.08533826 -157.25869172 87.96076467 -162.25830078 90.80004883 C-163.71490112 91.62738525 -163.71490112 91.62738525 -165.20092773 92.47143555 C-167.04275908 93.51523011 -168.88626845 94.55607099 -170.73168945 95.59350586 C-171.95722534 96.28742432 -171.95722534 96.28742432 -173.20751953 96.99536133 C-173.92407715 97.39851563 -174.64063477 97.80166992 -175.37890625 98.21704102 C-177.30641938 99.32657239 -177.30641938 99.32657239 -179.15283203 101.32348633 C-176.30084924 102.15135925 -174.67682626 102.51904478 -171.85473633 101.46582031 C-171.0701001 101.00506104 -170.28546387 100.54430176 -169.47705078 100.06958008 C-168.57946045 99.55218262 -167.68187012 99.03478516 -166.75708008 98.50170898 C-165.79455322 97.92727051 -164.83202637 97.35283203 -163.84033203 96.76098633 C-162.3182312 95.87612549 -162.3182312 95.87612549 -160.76538086 94.97338867 C-157.5535459 93.10284365 -154.35330619 91.21338781 -151.15283203 89.32348633 C-149.17465587 88.16944305 -147.19551246 87.01705592 -145.21533203 85.86645508 C-141.24417513 83.55763524 -137.27708086 81.24206978 -133.31298828 78.92114258 C-126.98196208 75.21835654 -120.63218333 71.54856712 -114.27783203 67.88598633 C-113.20944092 67.27005615 -112.1410498 66.65412598 -111.0402832 66.01953125 C-106.5729346 63.44488274 -102.10487901 60.8714638 -97.63623047 58.29907227 C-95.27936913 56.94233375 -92.92276279 55.58515412 -90.56640625 54.22753906 C-88.36276334 52.95802514 -86.15869248 51.68925365 -83.95410156 50.42138672 C-82.94718262 49.84122803 -81.94026367 49.26106934 -80.90283203 48.66333008 C-79.93345703 48.11016113 -78.96408203 47.55699219 -77.96533203 46.98706055 C-76.1005042 45.88402784 -74.26540189 44.72901777 -72.46533203 43.52319336 C-65.39709938 38.84560723 -65.39709938 38.84560723 -61.10205078 39.28833008 C-59.77488726 39.58936717 -58.45762877 39.93684459 -57.15283203 40.32348633 C-56.0499585 40.60796631 -56.0499585 40.60796631 -54.92480469 40.89819336 C-51.79640545 41.73159733 -48.70104139 42.66545578 -45.60009766 43.5949707 C-44.84019531 43.81604492 -44.08029297 44.03711914 -43.29736328 44.26489258 C-42.62036377 44.46800049 -41.94336426 44.6711084 -41.24584961 44.88037109 C-34.01685528 46.41083006 -29.56916239 43.16586246 -23.46533203 39.63598633 C-22.0219043 38.8403125 -22.0219043 38.8403125 -20.54931641 38.02856445 C-19.63085938 37.50327148 -18.71240234 36.97797852 -17.76611328 36.43676758 C-16.92862549 35.96021729 -16.0911377 35.48366699 -15.22827148 34.99267578 C-12.75457461 33.00318448 -12.07785992 31.32006894 -11.15283203 28.32348633 C-9.17283203 28.32348633 -7.19283203 28.32348633 -5.15283203 28.32348633 C-4.79729248 29.46358154 -4.79729248 29.46358154 -4.43457031 30.62670898 C-2.16310688 35.40586805 2.50014433 37.17689691 6.97216797 39.69848633 C7.89771484 40.25665039 8.82326172 40.81481445 9.77685547 41.38989258 C14.62325341 44.16219649 18.25497986 46.16126893 23.84570312 44.90893555 C24.50618652 44.7157373 25.16666992 44.52253906 25.84716797 44.32348633 C26.98677979 44.03175537 26.98677979 44.03175537 28.14941406 43.73413086 C31.43632209 42.87020035 34.69752064 41.92747013 37.95654297 40.96411133 C44.30381455 39.18850803 48.20258589 38.95244723 54.23779297 42.08129883 C55.52959816 42.861577 56.81568489 43.65136915 58.09716797 44.44848633 C59.61057492 45.36406459 61.1249637 46.27802116 62.64013672 47.19067383 C63.882229 47.9423584 63.882229 47.9423584 65.14941406 48.70922852 C70.19775849 51.73001162 75.30813389 54.64376544 80.40966797 57.57348633 C88.90427604 62.46398523 97.38483445 67.37735593 105.84716797 72.32348633 C115.47677714 77.95029644 125.12032218 83.55258381 134.79321289 89.10473633 C139.35977647 91.72595289 143.91985569 94.34957436 148.42138672 97.08129883 C149.06962402 97.46946777 149.71786133 97.85763672 150.38574219 98.25756836 C152.00016818 99.22764596 153.6058207 100.21228698 155.21044922 101.19848633 C158.26797921 102.50303246 159.72644796 102.32393573 162.84716797 101.32348633 C159.89713011 99.017962 156.86171511 97.09949318 153.61279297 95.24145508 C152.57638672 94.64655273 151.53998047 94.05165039 150.47216797 93.4387207 C149.35841797 92.80256836 148.24466797 92.16641602 147.09716797 91.51098633 C144.72667212 90.15153483 142.35727324 88.79017572 139.98779297 87.42895508 C139.38696899 87.08412079 138.78614502 86.7392865 138.16711426 86.38400269 C132.37710812 83.05901484 126.610377 79.69468385 120.84716797 76.32348633 C112.52985761 71.46210498 104.19514094 66.63201795 95.84716797 61.82348633 C88.37017023 57.51650366 80.8999536 53.19862105 73.44873047 48.84716797 C71.44377461 47.67701981 69.43729358 46.50948051 67.42919922 45.34472656 C62.71786333 42.60838835 58.03715503 39.83788004 53.40576172 36.96801758 C52.54974365 36.44691406 51.69372559 35.92581055 50.81176758 35.38891602 C49.22500967 34.4213002 47.64799859 33.43741989 46.08374023 32.43383789 C40.81750137 29.25381442 37.85913982 28.93806364 31.84716797 30.32348633 C30.65091797 30.67411133 29.45466797 31.02473633 28.22216797 31.38598633 C24.25800336 32.48714316 20.9290368 33.30824603 17.05566406 31.47607422 C14.44940481 29.90883819 11.93634993 28.2198451 9.41357422 26.52270508 C5.31346286 23.88152905 2.86344708 22.96835152 -2.15283203 23.32348633 C-4.02783203 21.82348633 -4.02783203 21.82348633 -5.15283203 20.32348633 C-4.16283203 17.84848633 -4.16283203 17.84848633 -3.15283203 15.32348633 C-0.90283203 14.94848633 -0.90283203 14.94848633 1.84716797 15.32348633 C2.42466797 16.22969727 3.00216797 17.1359082 3.59716797 18.06958008 C6.12225031 21.72130505 8.80818434 23.63376599 12.59716797 25.76098633 C13.17982422 26.12385742 13.76248047 26.48672852 14.36279297 26.8605957 C19.37497306 29.73490512 22.41563248 29.47115387 27.84716797 28.32348633 C30.7138996 27.36321817 30.7138996 27.36321817 32.84716797 26.32348633 C30.32628688 23.49171622 27.50077014 21.82758183 24.21826172 19.96020508 C22.54086914 19.00017578 22.54086914 19.00017578 20.82958984 18.02075195 C19.64807328 17.35061129 18.466432 16.68069049 17.28466797 16.01098633 C14.99122694 14.70322046 12.69825161 13.39463755 10.40576172 12.08520508 C9.29700684 11.45533691 8.18825195 10.82546875 7.04589844 10.17651367 C3.28790204 7.99950309 -0.39107951 5.70947685 -4.04711914 3.36572266 C-8.50739417 1.15808044 -11.32119587 2.72536494 -15.23095703 5.06958008 Z M62.84716797 35.32348633 C62.51716797 35.98348633 62.18716797 36.64348633 61.84716797 37.32348633 C74.09627249 44.48689092 86.35822239 51.62534299 98.65966797 58.69848633 C107.55619632 63.81625286 116.40355564 69.01019484 125.22216797 74.26098633 C134.81998411 79.97199636 144.46428107 85.59264831 154.15966797 91.13598633 C154.75825623 91.47886688 155.35684448 91.82174744 155.97357178 92.17501831 C161.53964947 95.36101368 167.09018956 98.49264806 172.84716797 101.32348633 C172.84716797 100.33348633 172.84716797 99.34348633 172.84716797 98.32348633 C172.13512207 97.91735107 171.42307617 97.51121582 170.68945312 97.09277344 C149.35848185 84.92289658 128.05294158 72.71068901 106.84716797 60.32348633 C98.72396263 55.57918152 90.5947835 50.84542137 82.45117188 46.13623047 C80.76609291 45.1613973 79.08200745 44.18484741 77.39794922 43.20825195 C76.36798828 42.61334961 75.33802734 42.01844727 74.27685547 41.40551758 C73.37177246 40.8819165 72.46668945 40.35831543 71.53417969 39.81884766 C68.67939988 38.23012093 65.77906831 36.76414758 62.84716797 35.32348633 Z M-80.15283203 35.32348633 C-82.49064148 36.36948892 -82.49064148 36.36948892 -85.12158203 37.97973633 C-86.67063232 38.88381226 -86.67063232 38.88381226 -88.25097656 39.80615234 C-89.37358887 40.47187256 -90.49620117 41.13759277 -91.65283203 41.82348633 C-92.82665567 42.51174606 -94.00098002 43.19915247 -95.17578125 43.88574219 C-97.62156631 45.31598259 -100.06513468 46.74990882 -102.50732422 48.1862793 C-108.07594283 51.45680519 -113.67913731 54.66733102 -119.27783203 57.88598633 C-128.5622024 63.23743288 -137.82465032 68.62548651 -147.0769043 74.03222656 C-154.77600249 78.52820396 -162.49179994 82.9946668 -170.21533203 87.44848633 C-171.30394531 88.07625977 -172.39255859 88.7040332 -173.51416016 89.35083008 C-178.72142993 92.35162961 -183.93193166 95.34646229 -189.15283203 98.32348633 C-188.65783203 99.80848633 -188.65783203 99.80848633 -188.15283203 101.32348633 C-174.20999609 93.41518226 -160.30127589 85.46163564 -146.52783203 77.26098633 C-137.74898252 72.03460039 -128.94397364 66.85975018 -120.09033203 61.76098633 C-119.03821533 61.15472412 -117.98609863 60.54846191 -116.90209961 59.92382812 C-111.83761875 57.00899394 -106.76851909 54.10245823 -101.69242859 51.207901 C-99.27959137 49.83109037 -96.86881378 48.45069769 -94.45828247 47.06985474 C-92.75362168 46.09537484 -91.04591025 45.1262376 -89.33813477 44.15722656 C-88.30889893 43.56756104 -87.27966309 42.97789551 -86.21923828 42.37036133 C-84.85714233 41.59450684 -84.85714233 41.59450684 -83.4675293 40.80297852 C-81.37932407 39.46825394 -79.80704999 38.15414965 -78.15283203 36.32348633 C-79.14283203 35.82848633 -79.14283203 35.82848633 -80.15283203 35.32348633 Z M-25.74072266 44.14575195 C-30.71267317 47.41524471 -33.93480055 49.09492305 -39.88696289 47.91992188 C-40.63469971 47.72309814 -41.38243652 47.52627441 -42.15283203 47.32348633 C-42.94633057 47.12859619 -43.7398291 46.93370605 -44.55737305 46.73291016 C-47.85838825 45.87769936 -51.12777964 44.92651426 -54.39892578 43.96411133 C-55.5996875 43.62766602 -55.5996875 43.62766602 -56.82470703 43.28442383 C-57.53723633 43.0760791 -58.24976563 42.86773437 -58.98388672 42.65307617 C-63.85382271 41.91304763 -67.36573395 43.79355685 -71.48486328 46.21020508 C-72.51804688 46.81155273 -73.55123047 47.41290039 -74.61572266 48.0324707 C-75.72109375 48.68538086 -76.82646484 49.33829102 -77.96533203 50.01098633 C-79.13226004 50.69329388 -80.29958423 51.37492427 -81.46728516 52.0559082 C-83.86687252 53.45682764 -86.26406581 54.86170986 -88.65917969 56.27026367 C-92.84424553 58.73136487 -97.03864795 61.17636894 -101.2331543 63.62133789 C-103.19377594 64.76436441 -105.15389286 65.90825708 -107.11352539 67.05297852 C-114.40525402 71.31170591 -121.71285006 75.54234229 -129.02783203 79.76098633 C-130.62534302 80.68403564 -130.62534302 80.68403564 -132.25512695 81.62573242 C-137.35149522 84.56784708 -142.45337579 87.49911429 -147.57525635 90.39656067 C-149.9660386 91.75000235 -152.35342169 93.10937695 -154.74053955 94.4692688 C-156.42073539 95.42316745 -158.10581701 96.3684441 -159.79101562 97.31347656 C-168.27098612 101.92358213 -168.27098612 101.92358213 -174.15283203 109.32348633 C-176.13283203 109.32348633 -178.11283203 109.32348633 -180.15283203 109.32348633 C-180.81283203 107.34348633 -181.47283203 105.36348633 -182.15283203 103.32348633 C-183.44692492 103.94344711 -184.73802876 104.56964986 -186.02783203 105.19848633 C-186.74712891 105.5465332 -187.46642578 105.89458008 -188.20751953 106.25317383 C-190.30418223 107.28906176 -190.30418223 107.28906176 -192.15283203 109.32348633 C-192.55929604 111.24324712 -192.96264867 113.16376361 -193.34423828 115.08862305 C-194.58821556 120.84936428 -195.73598996 125.69910182 -200.64111328 129.34301758 C-205.12937423 132.16305575 -209.9180632 134.42349764 -214.83145046 136.40222263 C-217.54268084 138.22669491 -217.54268084 138.22669491 -217.82393742 142.00122738 C-217.87111967 143.57618215 -217.89046768 145.1521076 -217.88868713 146.72776794 C-217.90707057 147.59574463 -217.92545401 148.46372132 -217.94439453 149.35800034 C-217.99963645 152.27820302 -218.01880388 155.19751679 -218.0378418 158.11816406 C-218.06916228 160.20751276 -218.10239607 162.29683352 -218.1374054 164.38612366 C-218.24268717 171.25957796 -218.29443537 178.13303871 -218.34423828 185.00708008 C-218.36447572 187.37399145 -218.38506032 189.74089989 -218.40598869 192.10780525 C-218.5012796 203.23178733 -218.57241675 214.35560321 -218.61404854 225.47991508 C-218.66287389 238.31431786 -218.79433127 251.14439967 -218.996553 263.97728008 C-219.14752674 273.89935088 -219.22140776 283.82018618 -219.2379536 293.74338299 C-219.24969439 299.66903512 -219.29427589 305.59007617 -219.42025948 311.51449394 C-219.53701917 317.0956217 -219.55773129 322.66913116 -219.50645256 328.25116539 C-219.50398217 330.29272137 -219.53541495 332.33465995 -219.60423279 334.37505722 C-219.96963601 343.64885038 -219.96963601 343.64885038 -217.15283203 352.32348633 C-213.41310002 355.85462918 -209.10782663 358.21020726 -204.44993931 360.33482403 C-199.69113954 362.51291019 -196.81835464 363.85261323 -194.84755802 368.88223934 C-193.98381642 371.77576915 -193.49230048 374.65593527 -193.03173828 377.63598633 C-192.46723047 381.43202326 -192.46723047 381.43202326 -189.73095703 383.74536133 C-187.25501533 385.26093776 -184.89588538 386.38301089 -182.15283203 387.32348633 C-181.49283203 385.34348633 -180.83283203 383.36348633 -180.15283203 381.32348633 C-177.40283203 380.94848633 -177.40283203 380.94848633 -174.15283203 381.32348633 C-173.65783203 382.1871582 -173.16283203 383.05083008 -172.65283203 383.94067383 C-169.51734402 388.9856889 -164.0007456 391.12948575 -158.90283203 393.82348633 C-156.6244052 395.06238195 -154.34708753 396.30331926 -152.07080078 397.54614258 C-150.33515869 398.48804443 -150.33515869 398.48804443 -148.56445312 399.44897461 C-143.39174364 402.29111454 -138.3020401 405.26840549 -133.21533203 408.26098633 C-131.22727677 409.4267364 -129.23899329 410.59209735 -127.25048828 411.75708008 C-126.2542041 412.34086426 -125.25791992 412.92464844 -124.23144531 413.52612305 C-118.88481303 416.64760654 -113.51827478 419.73448552 -108.15283203 422.82348633 C-98.40901111 428.43534109 -88.6858579 434.08152254 -78.97900391 439.75708008 C-77.16927451 440.81495947 -75.35771878 441.86972369 -73.54394531 442.9206543 C-72.04546604 443.7997907 -70.55741181 444.69722399 -69.0859375 445.62084961 C-65.68305369 447.72232812 -65.68305369 447.72232812 -61.80908203 448.41723633 C-60.74173828 448.12333008 -60.74173828 448.12333008 -59.65283203 447.82348633 C-58.81236328 447.60950195 -57.97189453 447.39551758 -57.10595703 447.17504883 C-55.64416016 446.75352539 -55.64416016 446.75352539 -54.15283203 446.32348633 C-52.23369732 445.79393256 -50.31446483 445.26468868 -48.39306641 444.7434082 C-46.48074331 444.21981827 -44.574425 443.67444498 -42.66845703 443.12817383 C-36.75037425 441.77359044 -33.74801055 441.74978908 -28.54345703 444.94848633 C-25.95595503 446.6204107 -23.39691389 448.32750415 -20.84814453 450.05786133 C-14.9292502 453.85898613 -10.21057877 455.81933693 -3.15283203 454.32348633 C0.07587103 453.03687555 2.88402404 451.35080565 5.78466797 449.44848633 C6.89551758 448.75819336 6.89551758 448.75819336 8.02880859 448.05395508 C11.00458962 446.19577507 13.92808556 444.26954127 16.84716797 442.32348633 C24.04774663 442.06514496 31.26982304 444.67533946 38.09326172 446.68286133 C38.89376953 446.9071582 39.69427734 447.13145508 40.51904297 447.36254883 C41.23157227 447.57089355 41.94410156 447.77923828 42.67822266 447.99389648 C47.34049028 448.70236804 50.7381035 447.03872826 54.67138672 444.69067383 C55.6038623 444.13968018 56.53633789 443.58868652 57.49707031 443.02099609 C58.49947754 442.41956787 59.50188477 441.81813965 60.53466797 441.19848633 C62.70742778 439.91262474 64.88061954 438.62749281 67.05419922 437.34301758 C68.17648926 436.67737793 69.2987793 436.01173828 70.45507812 435.32592773 C75.85410945 432.13873507 81.28769637 429.01223957 86.72216797 425.88598633 C88.90711164 424.62695477 91.09200722 423.36783972 93.27685547 422.10864258 C94.36192383 421.4836084 95.44699219 420.85857422 96.56494141 420.21459961 C99.82891124 418.33400527 103.09210985 416.45208087 106.35498047 414.56958008 C107.42804443 413.95058838 108.5011084 413.33159668 109.60668945 412.69384766 C111.7551932 411.45375972 113.90314898 410.21272191 116.05053711 408.97070312 C121.10982594 406.04625205 126.17430496 403.13226939 131.26052856 400.25494385 C133.65364011 398.900292 136.04336729 397.5397312 138.43286133 396.17871094 C140.11392422 395.22445284 141.79982237 394.27872858 143.48583984 393.33325195 C151.96552342 388.72320811 151.96552342 388.72320811 157.84716797 381.32348633 C159.82716797 381.32348633 161.80716797 381.32348633 163.84716797 381.32348633 C163.99154297 382.10723633 164.13591797 382.89098633 164.28466797 383.69848633 C164.72515722 386.28769651 164.72515722 386.28769651 165.84716797 388.32348633 C172.60588774 384.72284914 172.60588774 384.72284914 176.72216797 378.57348633 C177.35013703 376.35483176 177.87135498 374.18225291 178.26081324 371.90811825 C179.07627242 368.0350937 179.70078939 365.20580882 182.92363262 362.72531319 C185.53945366 361.39511971 188.19319172 360.19522861 190.8729248 358.99951172 C197.39778938 355.65019692 197.39778938 355.65019692 202.03413582 350.18702316 C203.88287025 344.09868427 203.57279129 337.80368999 203.43505859 331.50708008 C203.46220077 329.41630918 203.49783485 327.32563404 203.54125977 325.23513794 C203.63206683 319.58405625 203.59727992 313.94031373 203.53367805 308.28911209 C203.48283238 302.36084304 203.53005908 296.43317815 203.56140137 290.50488281 C203.59773094 280.55102297 203.5500002 270.60013622 203.45458984 260.64672852 C203.34573553 249.15858086 203.3809977 237.67753087 203.49111795 226.18955517 C203.58205513 216.3049402 203.59460501 206.42245503 203.54234457 196.53755665 C203.51125293 190.64298557 203.50673591 184.75174474 203.57307434 178.85739136 C203.63113291 173.31196092 203.59036159 167.77561977 203.47518921 162.23116684 C203.44887959 160.20452824 203.45611847 158.17711582 203.5004425 156.15079117 C203.74668444 146.9226371 203.74668444 146.9226371 200.84716797 138.32348633 C197.09896812 134.83557554 192.7985476 132.49126948 188.14859629 130.40184116 C181.4526281 127.34795177 181.4526281 127.34795177 179.44838428 123.95668221 C178.51307117 121.43776707 177.80077015 119.00838808 177.22216797 116.38598633 C177.02995965 115.51795348 176.83775134 114.64992064 176.63971853 113.75558376 C176.4761456 112.99939786 176.31257266 112.24321196 176.14404297 111.46411133 C175.31328519 108.13233541 174.9641049 107.4303796 172.30029297 104.99536133 C169.80698244 103.79691925 167.54659873 102.90498426 164.84716797 102.32348633 C164.87810547 103.77754883 164.87810547 103.77754883 164.90966797 105.26098633 C164.84716797 108.32348633 164.84716797 108.32348633 163.84716797 109.32348633 C161.03466797 109.76098633 161.03466797 109.76098633 157.84716797 109.32348633 C157.10660156 108.02604492 157.10660156 108.02604492 156.35107422 106.70239258 C153.21057972 101.66289075 147.69383028 99.51682567 142.59716797 96.82348633 C140.31874114 95.58459071 138.04142347 94.3436534 135.76513672 93.10083008 C134.02949463 92.15892822 134.02949463 92.15892822 132.25878906 91.19799805 C127.08607751 88.35585698 121.99641008 85.37851221 116.90966797 82.38598633 C114.91899573 81.21895595 112.92810828 80.05229261 110.93701172 78.88598633 C109.94040527 78.30204102 108.94379883 77.7180957 107.91699219 77.11645508 C102.61389527 74.01911583 97.29320123 70.95237827 91.97216797 67.88598633 C90.90724121 67.27215088 89.84231445 66.65831543 88.74511719 66.02587891 C85.44602389 64.12469388 82.14659923 62.22408477 78.84716797 60.32348633 C74.65085486 57.90564971 70.45496513 55.48707971 66.25946045 53.06784058 C64.57618575 52.0974216 62.8925891 51.12756114 61.20898438 50.15771484 C60.18595215 49.56788818 59.16291992 48.97806152 58.10888672 48.37036133 C57.21129639 47.853125 56.31370605 47.33588867 55.38891602 46.80297852 C53.62549793 45.77653402 51.8809494 44.71724699 50.15258789 43.6328125 C47.40815988 42.07415875 46.48294438 42.13065119 43.47216797 42.88598633 C42.61365234 43.09094727 41.75513672 43.2959082 40.87060547 43.50708008 C38.60361325 44.11922656 36.33825311 44.7374226 34.07373047 45.35864258 C33.41679199 45.5377417 32.75985352 45.71684082 32.08300781 45.90136719 C30.17268794 46.42767981 28.26759719 46.97286122 26.36279297 47.51879883 C20.44471019 48.87338222 17.44234649 48.89718358 12.23779297 45.69848633 C9.65029097 44.02656196 7.09124983 42.31946851 4.54248047 40.58911133 C-0.51196898 37.34313462 -4.55738219 35.33287068 -10.65722656 35.7331543 C-16.39408755 37.09020085 -20.97776809 40.8267867 -25.74072266 44.14575195 Z M179.84716797 111.32348633 C179.96069593 116.15220902 180.66390696 119.99026024 182.84716797 124.32348633 C186.8169255 127.85684059 195.30908374 134.32348633 200.84716797 134.32348633 C201.39448929 130.52602234 201.58452402 127.10439715 200.84716797 123.32348633 C198.35037234 120.39514578 195.28045662 118.97548714 191.84716797 117.32348633 C190.76822266 116.76532227 189.68927734 116.2071582 188.57763672 115.63208008 C185.68579238 114.15356891 182.77829179 112.72209363 179.84716797 111.32348633 Z M-201.37158203 113.69458008 C-202.22107422 114.18635742 -203.07056641 114.67813477 -203.94580078 115.18481445 C-205.28578125 115.96501953 -205.28578125 115.96501953 -206.65283203 116.76098633 C-207.54615234 117.27725586 -208.43947266 117.79352539 -209.35986328 118.32543945 C-213.48908756 120.50638408 -213.48908756 120.50638408 -217.15283203 123.32348633 C-217.22509705 125.17636134 -217.23664423 127.0318251 -217.21533203 128.88598633 C-217.20630859 129.89790039 -217.19728516 130.90981445 -217.18798828 131.95239258 C-217.17638672 132.73485352 -217.16478516 133.51731445 -217.15283203 134.32348633 C-214.44513552 132.85457321 -211.74315259 131.37911946 -209.05517578 129.87426758 C-206.15283203 128.32348633 -206.15283203 128.32348633 -203.96923828 127.49145508 C-201.80836275 126.7263763 -201.80836275 126.7263763 -199.15283203 124.32348633 C-197.67058467 120.05737655 -196.82940032 115.78239354 -196.15283203 111.32348633 C-198.0659462 111.32348633 -199.76470518 112.76356197 -201.37158203 113.69458008 Z M-217.15283203 356.32348633 C-217.70015335 360.12095032 -217.89018808 363.54257551 -217.15283203 367.32348633 C-214.6560364 370.25182688 -211.58612068 371.67148551 -208.15283203 373.32348633 C-207.07388672 373.88165039 -205.99494141 374.43981445 -204.88330078 375.01489258 C-201.99145644 376.49340374 -199.08395585 377.92487902 -196.15283203 379.32348633 C-196.26635999 374.49476364 -196.96957103 370.65671242 -199.15283203 366.32348633 C-203.12258957 362.79013207 -211.61474781 356.32348633 -217.15283203 356.32348633 Z M182.84716797 366.32348633 C180.66390696 370.65671242 179.96069593 374.49476364 179.84716797 379.32348633 C183.886546 377.39606737 187.87203995 375.37991456 191.84716797 373.32348633 C192.77142578 372.87875977 193.69568359 372.4340332 194.64794922 371.97583008 C197.16450245 370.59915104 198.9826209 369.5103008 200.84716797 367.32348633 C201.58452402 363.54257551 201.39448929 360.12095032 200.84716797 356.32348633 C195.30908374 356.32348633 186.8169255 362.79013207 182.84716797 366.32348633 Z M-189.15283203 389.32348633 C-189.15283203 390.31348633 -189.15283203 391.30348633 -189.15283203 392.32348633 C-188.4303125 392.7348584 -187.70779297 393.14623047 -186.96337891 393.57006836 C-174.3283152 400.76758491 -161.70104641 407.97522124 -149.15283203 415.32348633 C-139.93226664 420.72273569 -130.66863702 426.0430226 -121.38397217 431.3309021 C-111.81160243 436.78364587 -102.28250976 442.30545389 -92.78955078 447.89575195 C-88.30710028 450.52675551 -83.84585278 453.086846 -79.15283203 455.32348633 C-78.82283203 454.66348633 -78.49283203 454.00348633 -78.15283203 453.32348633 C-79.12216675 452.76757812 -79.12216675 452.76757812 -80.11108398 452.20043945 C-92.6743848 444.98925704 -105.20366114 437.73027815 -117.65283203 430.32348633 C-127.57595955 424.42119575 -137.54380008 418.60367881 -147.5546875 412.8515625 C-152.99391727 409.7255636 -158.42427209 406.5860264 -163.83642578 403.41333008 C-164.91835205 402.77927246 -166.00027832 402.14521484 -167.11499023 401.49194336 C-169.15775715 400.29324678 -171.19934762 399.09254205 -173.23950195 397.8894043 C-178.46000302 394.8272087 -183.70352979 391.95838423 -189.15283203 389.32348633 Z M-177.37158203 389.2331543 C-177.95939453 389.59296387 -178.54720703 389.95277344 -179.15283203 390.32348633 C-178.63599854 390.60434082 -178.11916504 390.88519531 -177.58666992 391.17456055 C-166.45124834 397.2359085 -155.43093855 403.44492656 -144.53027344 409.91772461 C-139.8962157 412.65780516 -135.2419381 415.36334238 -130.59033203 418.07348633 C-128.52391198 419.27788973 -126.45750585 420.48231702 -124.39111328 421.68676758 C-123.35680176 422.28956543 -122.32249023 422.89236328 -121.25683594 423.51342773 C-118.23551455 425.27527112 -115.21543454 427.03922111 -112.19580078 428.80395508 C-100.56180251 435.60125028 -88.90847794 442.36385578 -77.23144531 449.08691406 C-75.71526611 449.96005249 -75.71526611 449.96005249 -74.16845703 450.85083008 C-73.18127686 451.41664795 -72.19409668 451.98246582 -71.17700195 452.56542969 C-69.06280402 453.79448751 -66.96234527 455.04734836 -64.87280273 456.31787109 C-63.81150146 456.95909912 -62.7502002 457.60032715 -61.65673828 458.26098633 C-60.70355713 458.8462207 -59.75037598 459.43145508 -58.76831055 460.03442383 C-53.57593601 462.59353309 -49.89722228 460.83477313 -44.52783203 459.26098633 C-40.56366743 458.15982949 -37.23470087 457.33872662 -33.36132812 459.17089844 C-30.75506887 460.73813446 -28.24201399 462.42712756 -25.71923828 464.12426758 C-21.59395671 466.78165755 -19.18461351 467.61266917 -14.15283203 467.32348633 C-13.16283203 467.98348633 -12.17283203 468.64348633 -11.15283203 469.32348633 C-12.02783203 474.19848633 -12.02783203 474.19848633 -13.15283203 475.32348633 C-15.46533203 475.76098633 -15.46533203 475.76098633 -18.15283203 475.32348633 C-18.72904297 474.41598633 -19.30525391 473.50848633 -19.89892578 472.57348633 C-22.42748542 468.92745233 -25.11563749 467.01220223 -28.90283203 464.88598633 C-29.48548828 464.52311523 -30.06814453 464.16024414 -30.66845703 463.78637695 C-35.68063712 460.91206754 -38.72129654 461.17581879 -44.15283203 462.32348633 C-47.01956367 463.28375449 -47.01956367 463.28375449 -49.15283203 464.32348633 C-46.63195094 467.15525643 -43.8064342 468.81939083 -40.52392578 470.68676758 C-39.40566406 471.32678711 -38.28740234 471.96680664 -37.13525391 472.6262207 C-35.95373735 473.29636136 -34.77209606 473.96628216 -33.59033203 474.63598633 C-31.29689101 475.94375219 -29.00391567 477.2523351 -26.71142578 478.56176758 C-25.60009277 479.19034668 -24.48875977 479.81892578 -23.34375 480.46655273 C-20.39452263 482.18283608 -17.55009926 484.01039997 -14.68798828 485.86645508 C-11.74638322 487.62349921 -10.47778973 488.30856892 -7.00439453 488.46801758 C-3.27356724 486.97057594 0.05642785 485.12185964 3.47216797 483.01098633 C4.19202881 482.5767334 4.91188965 482.14248047 5.65356445 481.69506836 C7.21407469 480.75294252 8.77217414 479.80681461 10.328125 478.85717773 C13.9343167 476.66158787 17.55930133 474.49773871 21.18261719 472.33056641 C25.0746511 470.00126947 28.96122526 467.66292682 32.84716797 465.32348633 C31.94300034 462.93270696 31.94300034 462.93270696 28.59716797 462.19848633 C21.50812121 460.54437542 18.24073802 461.80227764 12.22216797 465.51098633 C11.55443359 465.89834961 10.88669922 466.28571289 10.19873047 466.68481445 C6.18543998 469.1128552 4.11003577 471.11469964 1.84716797 475.32348633 C-0.71533203 475.82348633 -0.71533203 475.82348633 -3.15283203 475.32348633 C-5.15283203 472.32348633 -5.15283203 472.32348633 -4.77783203 470.13598633 C-4.57158203 469.53786133 -4.36533203 468.93973633 -4.15283203 468.32348633 C-3.03908203 468.10692383 -3.03908203 468.10692383 -1.90283203 467.88598633 C-0.99533203 467.70036133 -0.08783203 467.51473633 0.84716797 467.32348633 C1.42724609 467.23196289 2.00732422 467.14043945 2.60498047 467.04614258 C5.23606435 466.19814516 7.35198233 464.82292458 9.66918945 463.33862305 C15.356512 459.74217128 19.80423446 457.28920031 26.67138672 458.68286133 C28.64854245 459.26500413 30.62301503 459.85624045 32.59716797 460.44848633 C37.08491381 461.65672559 40.2896335 461.05319793 44.48657227 459.08691406 C45.81555542 458.30489624 45.81555542 458.30489624 47.17138672 457.50708008 C48.18571777 456.91612549 49.20004883 456.3251709 50.24511719 455.71630859 C51.33066895 455.07105225 52.4162207 454.4257959 53.53466797 453.76098633 C54.69062184 453.08303856 55.84704431 452.40588925 57.00390625 451.72949219 C60.62612364 449.60724478 64.23744367 447.46689476 67.84716797 445.32348633 C68.9704248 444.65736328 70.09368164 443.99124023 71.25097656 443.30493164 C75.70072843 440.66499372 80.14994041 438.02417083 84.59594727 435.37792969 C93.20633745 430.26363617 101.88360737 425.27770999 110.59176636 420.33282471 C120.64764315 414.6201915 130.61276414 408.76573535 140.52880859 402.8137207 C147.86156591 398.43055471 155.29604199 394.3150918 162.84716797 390.32348633 C161.16960322 389.04471293 161.16960322 389.04471293 158.84716797 388.32348633 C156.10361541 389.17330937 156.10361541 389.17330937 153.29248047 390.79614258 C152.22803711 391.36478027 151.16359375 391.93341797 150.06689453 392.51928711 C145.25364389 395.21643014 140.46823567 397.94706094 135.72216797 400.76098633 C133.61576395 401.99989146 131.50897971 403.2381503 129.40185547 404.47583008 C128.32387695 405.1098877 127.24589844 405.74394531 126.13525391 406.3972168 C120.72252412 409.56817299 115.28447111 412.69491817 109.84716797 415.82348633 C102.45575341 420.08124909 95.0699362 424.34807792 87.70263672 428.64746094 C85.73018803 429.79800215 83.75624862 430.94599186 81.78076172 432.09130859 C76.57742881 435.1140615 71.41624683 438.19092594 66.29248047 441.34692383 C65.21369629 442.00168701 64.13491211 442.6564502 63.0234375 443.33105469 C60.95909482 444.58536898 58.90466533 445.85619841 56.86230469 447.14599609 C48.44655033 452.22000859 48.44655033 452.22000859 42.81738281 450.91992188 C41.84212646 450.62468628 41.84212646 450.62468628 40.84716797 450.32348633 C40.11320801 450.13375244 39.37924805 449.94401855 38.62304688 449.74853516 C35.49297192 448.916419 32.39660378 447.98188451 29.29443359 447.05200195 C28.53453125 446.83092773 27.77462891 446.60985352 26.99169922 446.38208008 C26.31469971 446.17897217 25.6377002 445.97586426 24.94018555 445.76660156 C17.71119122 444.2361426 13.26349832 447.4811102 7.15966797 451.01098633 C5.71624023 451.80666016 5.71624023 451.80666016 4.24365234 452.6184082 C3.32519531 453.14370117 2.40673828 453.66899414 1.46044922 454.21020508 C0.62296143 454.68675537 -0.21452637 455.16330566 -1.07739258 455.65429688 C-3.55108946 457.64378818 -4.22780415 459.32690371 -5.15283203 462.32348633 C-7.13283203 462.32348633 -9.11283203 462.32348633 -11.15283203 462.32348633 C-11.50837158 461.18339111 -11.50837158 461.18339111 -11.87109375 460.02026367 C-14.14255718 455.24110461 -18.80580839 453.47007575 -23.27783203 450.94848633 C-24.20337891 450.39032227 -25.12892578 449.8321582 -26.08251953 449.25708008 C-30.92891747 446.48477617 -34.56064392 444.48570373 -40.15136719 445.73803711 C-40.81185059 445.93123535 -41.47233398 446.12443359 -42.15283203 446.32348633 C-43.29244385 446.61521729 -43.29244385 446.61521729 -44.45507812 446.9128418 C-47.74198615 447.77677231 -51.0031847 448.71950253 -54.26220703 449.68286133 C-55.06400391 449.9071582 -55.86580078 450.13145508 -56.69189453 450.36254883 C-57.40555176 450.57089355 -58.11920898 450.77923828 -58.85449219 450.99389648 C-63.90142283 451.71764371 -67.80160728 450.25811021 -72.07470703 447.69067383 C-73.00412109 447.13959961 -73.93353516 446.58852539 -74.89111328 446.02075195 C-75.88498047 445.4194043 -76.87884766 444.81805664 -77.90283203 444.19848633 C-80.06381332 442.91382936 -82.22528867 441.63000319 -84.38720703 440.34692383 C-85.50289063 439.68144531 -86.61857422 439.0159668 -87.76806641 438.33032227 C-93.19996066 435.10973869 -98.67693423 431.96846104 -104.15283203 428.82348633 C-112.50148009 424.01612476 -120.83512711 419.18417948 -129.15283203 414.32348633 C-137.81120225 409.26747207 -146.47586413 404.2225095 -155.15283203 399.19848633 C-156.23306641 398.57071289 -157.31330078 397.94293945 -158.42626953 397.29614258 C-161.32519983 395.62031259 -164.23554724 393.96710149 -167.15283203 392.32348633 C-167.93916016 391.86619141 -168.72548828 391.40889648 -169.53564453 390.93774414 C-173.28916152 388.62002959 -173.28916152 388.62002959 -177.37158203 389.2331543 Z M171.84716797 389.32348633 C157.94452471 397.20899332 144.07664046 405.13929296 130.34716797 413.32348633 C121.23417065 418.75527652 112.07109125 424.08351152 102.84716797 429.32348633 C89.07536162 437.14864147 75.44601047 445.20204606 61.84716797 453.32348633 C62.50716797 453.98348633 63.16716797 454.64348633 63.84716797 455.32348633 C76.53183158 448.02085014 89.21044515 440.70887335 101.84716797 433.32348633 C113.36661715 426.5925625 124.9205182 419.92230893 136.48144531 413.26293945 C139.99610047 411.23766594 143.50972266 409.21061154 147.02294922 407.18286133 C147.61309814 406.84226181 148.20324707 406.50166229 148.8112793 406.15074158 C151.64409553 404.51578726 154.47685797 402.88073978 157.30957031 401.24560547 C162.482582 398.26060799 167.6584603 395.28112309 172.84716797 392.32348633 C172.35216797 390.83848633 172.35216797 390.83848633 171.84716797 389.32348633 Z " fill="#FDFDFD" transform="translate(258.15283203125,4.676513671875)"/>
<path d="M0 0 C4.62 0 9.24 0 14 0 C17.22614792 3.31262198 18.6602994 5.26879551 20.625 9.25 C21.68336524 11.16549086 22.74196535 13.08085196 23.80078125 14.99609375 C24.58316162 16.47891846 24.58316162 16.47891846 25.38134766 17.99169922 C28.00906768 22.87537435 30.92426869 27.58003867 33.8125 32.3125 C34.82109745 33.99484429 35.827811 35.67832047 36.83203125 37.36328125 C37.25202393 38.06751221 37.6720166 38.77174316 38.10473633 39.49731445 C38.40017334 39.99320068 38.69561035 40.48908691 39 41 C41.94204765 37.47603562 44.36763678 33.88521636 46.6796875 29.921875 C47.01493439 29.35100159 47.35018127 28.78012817 47.69558716 28.19195557 C48.75913294 26.38013058 49.81752437 24.56537349 50.875 22.75 C51.57639741 21.54792871 52.27821713 20.34610371 52.98046875 19.14453125 C53.32346008 18.557323 53.66645142 17.97011475 54.01983643 17.3651123 C55.04076932 15.6329887 56.08227994 13.91304732 57.12402344 12.19335938 C59.00398032 9.10288646 59.00398032 9.10288646 60.35253906 6.13476562 C61.6328125 3.640625 61.6328125 3.640625 65 0 C69.62 0 74.24 0 79 0 C79 23.1 79 46.2 79 70 C73.72 70 68.44 70 63 70 C62.67 57.46 62.34 44.92 62 32 C58.31977759 38.45997196 58.31977759 38.45997196 54.64208984 44.92138672 C53.63355911 46.68898221 52.61340849 48.44997277 51.58496094 50.20605469 C50.52208294 52.07968005 49.51988117 53.9889458 48.57910156 55.92675781 C45.25534941 62.42975116 45.25534941 62.42975116 41.85986328 63.97216797 C39.09305473 64.30451208 37.55805112 64.12238719 35 63 C32.07353207 60.03968228 30.22045114 56.64411828 28.25 53 C27.71246094 52.06542969 27.17492187 51.13085938 26.62109375 50.16796875 C25.60452995 48.39949401 24.60172386 46.62297835 23.61816406 44.8359375 C21.52063168 41.15987593 19.24315881 37.5890541 17 34 C16.67 45.88 16.34 57.76 16 70 C10.72 70 5.44 70 0 70 C0 46.9 0 23.8 0 0 Z " fill="#E8E8E8" transform="translate(340,158)"/>
<path d="M0 0 C1.0545488 0.00470306 2.1090976 0.00940613 3.19560242 0.01425171 C6.55164765 0.03554592 9.90609722 0.09216982 13.26171875 0.1484375 C15.53839664 0.16494807 17.81509133 0.17929524 20.09179688 0.19140625 C24.23628652 0.2253562 28.38061943 0.25986907 32.5246582 0.33056641 C33.77325371 0.34985703 33.77325371 0.34985703 35.04707336 0.36953735 C36.94921875 0.5234375 36.94921875 0.5234375 37.94921875 1.5234375 C38.4919571 5.64049555 38.90760748 9.81107163 36.83203125 13.51953125 C35.44921875 15.1484375 35.44921875 15.1484375 32.94921875 17.5234375 C33.67109375 17.7709375 34.39296875 18.0184375 35.13671875 18.2734375 C38.28650707 19.67334342 40.47612214 21.11903801 42.94921875 23.5234375 C43.11421875 24.3896875 43.27921875 25.2559375 43.44921875 26.1484375 C43.61421875 26.9321875 43.77921875 27.7159375 43.94921875 28.5234375 C45.60447513 29.21795067 47.27356824 29.87968476 48.94921875 30.5234375 C51.37109375 32.109375 51.37109375 32.109375 53.69921875 33.8984375 C54.4778125 34.48367187 55.25640625 35.06890625 56.05859375 35.671875 C58.1157282 37.68650668 58.78963166 38.66226899 58.94921875 41.5234375 C58.28921875 42.5134375 57.62921875 43.5034375 56.94921875 44.5234375 C55.87273281 48.0220168 54.94320622 51.54628512 54.01171875 55.0859375 C51.79303419 62.2640346 48.78822914 66.01220208 42.94921875 70.5234375 C43.27921875 71.1834375 43.60921875 71.8434375 43.94921875 72.5234375 C44.02038257 74.89746251 44.0333096 77.27344427 44.01171875 79.6484375 C44.00269531 80.92976563 43.99367188 82.21109375 43.984375 83.53125 C43.97277344 84.51867187 43.96117187 85.50609375 43.94921875 86.5234375 C36.78298253 86.85571698 29.61875786 87.08176636 22.4465332 87.23754883 C20.01251024 87.30253997 17.57898722 87.39097242 15.14672852 87.50415039 C-8.6141627 88.58131079 -8.6141627 88.58131079 -16.16015625 81.97265625 C-25.04856894 72.34518407 -22.59383079 55.92061319 -22.17657471 43.71783447 C-22.09182586 40.7795749 -22.07128339 37.84238912 -22.05286503 34.90307617 C-22.02740872 31.38018634 -21.96404058 27.85826827 -21.8984375 24.3359375 C-21.87830093 23.02447754 -21.85816437 21.71301758 -21.8374176 20.36181641 C-21.79575974 19.14284668 -21.75410187 17.92387695 -21.71118164 16.66796875 C-21.68085342 15.59909424 -21.65052521 14.53021973 -21.61927795 13.42895508 C-20.9173307 9.84138797 -19.5112476 8.18251319 -17.05078125 5.5234375 C-16.20620361 4.6061084 -15.36162598 3.6887793 -14.49145508 2.74365234 C-10.18878722 -0.68944438 -5.26329324 -0.11745546 0 0 Z M-15.90405273 10.71459961 C-17.31849575 12.58877755 -17.31849575 12.58877755 -17.05078125 15.5234375 C-16.29152344 15.51183594 -15.53226562 15.50023437 -14.75 15.48828125 C-13.75613281 15.47925781 -12.76226562 15.47023437 -11.73828125 15.4609375 C-10.75214844 15.44933594 -9.76601562 15.43773437 -8.75 15.42578125 C-6.05078125 15.5234375 -6.05078125 15.5234375 -3.05078125 16.5234375 C-2.72078125 17.5134375 -2.39078125 18.5034375 -2.05078125 19.5234375 C-7.00078125 19.5234375 -11.95078125 19.5234375 -17.05078125 19.5234375 C-17.05078125 26.1234375 -17.05078125 32.7234375 -17.05078125 39.5234375 C-12.53392776 35.70434958 -12.53392776 35.70434958 -8.17578125 31.7109375 C-4.72272331 29.78128747 -0.9483266 29.76495206 2.94921875 29.5234375 C2.94921875 28.8634375 2.94921875 28.2034375 2.94921875 27.5234375 C0.59575479 26.34670552 -0.93138455 26.35719884 -3.55078125 26.3359375 C-4.34484375 26.32175781 -5.13890625 26.30757812 -5.95703125 26.29296875 C-8.27111442 26.32677447 -8.27111442 26.32677447 -10.05078125 28.5234375 C-11.37078125 28.5234375 -12.69078125 28.5234375 -14.05078125 28.5234375 C-14.67578125 26.6484375 -14.67578125 26.6484375 -15.05078125 24.5234375 C-14.39078125 23.8634375 -13.73078125 23.2034375 -13.05078125 22.5234375 C-11.70595461 22.80686333 -10.37333556 23.14962072 -9.05078125 23.5234375 C-7.40442928 23.51808351 -5.75788581 23.47445928 -4.11328125 23.3984375 C0.13765397 23.33583168 2.47569252 23.91829283 5.94921875 26.5234375 C6.60921875 26.5234375 7.26921875 26.5234375 7.94921875 26.5234375 C5.13473414 20.07177278 -0.80528487 14.64618569 -7.05078125 11.5234375 C-6.39078125 10.2034375 -5.73078125 8.8834375 -5.05078125 7.5234375 C-3.40078125 7.5234375 -1.75078125 7.5234375 -0.05078125 7.5234375 C-0.17453125 8.2453125 -0.29828125 8.9671875 -0.42578125 9.7109375 C0.00923706 12.97357486 0.50483026 13.3276371 2.94921875 15.3359375 C3.93921875 16.0578125 4.92921875 16.7796875 5.94921875 17.5234375 C6.27921875 16.8634375 6.60921875 16.2034375 6.94921875 15.5234375 C6.26859375 14.9459375 5.58796875 14.3684375 4.88671875 13.7734375 C4.24734375 13.0309375 3.60796875 12.2884375 2.94921875 11.5234375 C3.19921875 9.2734375 3.19921875 9.2734375 3.94921875 7.5234375 C6.42421875 8.0184375 6.42421875 8.0184375 8.94921875 8.5234375 C8.85640625 9.61591797 8.85640625 9.61591797 8.76171875 10.73046875 C8.98805383 14.10191834 9.96847114 15.51033486 11.94921875 18.2109375 C14.94921875 22.34288194 14.94921875 22.34288194 14.94921875 24.5234375 C14.37171875 24.7296875 13.79421875 24.9359375 13.19921875 25.1484375 C10.13511331 27.02094638 8.79381907 29.49302269 6.94921875 32.5234375 C8.92921875 33.1834375 10.90921875 33.8434375 12.94921875 34.5234375 C12.78421875 35.0184375 12.61921875 35.5134375 12.44921875 36.0234375 C11.29267091 41.80617668 11.16642638 45.78865896 14.26171875 50.8359375 C15.94917001 53.33417615 17.76761421 55.44419564 19.94921875 57.5234375 C19.45421875 54.0584375 19.45421875 54.0584375 18.94921875 50.5234375 C19.58859375 51.2659375 20.22796875 52.0084375 20.88671875 52.7734375 C23.75848398 55.66953972 26.85792811 56.88858662 30.58984375 58.41015625 C34.44491339 60.22918746 37.66255334 62.83679002 40.94921875 65.5234375 C41.60921875 64.5334375 42.26921875 63.5434375 42.94921875 62.5234375 C43.93921875 62.5234375 44.92921875 62.5234375 45.94921875 62.5234375 C46.60921875 61.2034375 47.26921875 59.8834375 47.94921875 58.5234375 C46.7824538 56.89601349 46.7824538 56.89601349 44.94921875 55.5234375 C42.42264108 55.37709679 42.42264108 55.37709679 39.76171875 55.8359375 C38.86066406 55.95582031 37.95960938 56.07570312 37.03125 56.19921875 C36.34417969 56.30621094 35.65710938 56.41320312 34.94921875 56.5234375 C34.94921875 55.8634375 34.94921875 55.2034375 34.94921875 54.5234375 C36.00882813 54.26949219 37.0684375 54.01554687 38.16015625 53.75390625 C39.5483304 53.40686271 40.93634306 53.05917273 42.32421875 52.7109375 C43.02289063 52.54529297 43.7215625 52.37964844 44.44140625 52.20898438 C48.98598814 51.09172543 48.98598814 51.09172543 51.94921875 47.5234375 C51.87315039 45.38540696 51.87315039 45.38540696 50.94921875 43.5234375 C49.46421875 43.0284375 49.46421875 43.0284375 47.94921875 42.5234375 C48.93921875 40.8734375 49.92921875 39.2234375 50.94921875 37.5234375 C50.17835938 37.00394531 49.4075 36.48445313 48.61328125 35.94921875 C47.61039062 35.25183594 46.6075 34.55445313 45.57421875 33.8359375 C44.57648438 33.15144531 43.57875 32.46695313 42.55078125 31.76171875 C39.94921875 29.5234375 39.94921875 29.5234375 38.9453125 26.921875 C37.54442054 23.54874692 35.6957246 23.20354487 32.38671875 21.8359375 C27.2183637 19.26525438 27.2183637 19.26525438 26.00390625 15.91796875 C25.78364868 13.39921682 25.73529779 11.04073994 25.94921875 8.5234375 C28.02475523 7.9699611 29.79287839 7.5234375 31.94921875 7.5234375 C32.44421875 9.0084375 32.44421875 9.0084375 32.94921875 10.5234375 C32.94921875 8.8734375 32.94921875 7.2234375 32.94921875 5.5234375 C27.00921875 5.5234375 21.06921875 5.5234375 14.94921875 5.5234375 C14.65109089 13.46574683 14.65109089 13.46574683 18.94921875 18.5234375 C19.44421875 20.0084375 19.44421875 20.0084375 19.94921875 21.5234375 C15.69736378 20.00491787 14.04493186 17.42579984 11.94921875 13.5234375 C11.44296299 10.86317436 11.22464852 8.2220928 10.94921875 5.5234375 C7.5959691 5.31839401 4.24434472 5.19525555 0.88671875 5.0859375 C-0.05623047 5.02728516 -0.99917969 4.96863281 -1.97070312 4.90820312 C-8.45332155 4.75009048 -11.53669124 5.87212232 -15.90405273 10.71459961 Z M6.94921875 17.5234375 C7.60921875 18.8434375 8.26921875 20.1634375 8.94921875 21.5234375 C8.94921875 20.5334375 8.94921875 19.5434375 8.94921875 18.5234375 C8.28921875 18.1934375 7.62921875 17.8634375 6.94921875 17.5234375 Z M-6.23828125 35.0234375 C-6.50640625 35.8484375 -6.77453125 36.6734375 -7.05078125 37.5234375 C-6.06078125 37.5234375 -5.07078125 37.5234375 -4.05078125 37.5234375 C-3.72078125 36.8634375 -3.39078125 36.2034375 -3.05078125 35.5234375 C-0.765625 35.109375 -0.765625 35.109375 2.01171875 34.8984375 C2.93082031 34.82367188 3.84992188 34.74890625 4.796875 34.671875 C5.50714844 34.62289062 6.21742187 34.57390625 6.94921875 34.5234375 C6.94921875 33.8634375 6.94921875 33.2034375 6.94921875 32.5234375 C-0.41364759 31.54750715 -0.41364759 31.54750715 -6.23828125 35.0234375 Z M-8.05078125 37.5234375 C-9.04078125 38.1834375 -10.03078125 38.8434375 -11.05078125 39.5234375 C-11.05078125 40.1834375 -11.05078125 40.8434375 -11.05078125 41.5234375 C-12.25734375 41.9875 -12.25734375 41.9875 -13.48828125 42.4609375 C-15.9415853 43.28679095 -15.9415853 43.28679095 -17.05078125 44.5234375 C-17.53184357 48.82366004 -17.60961342 53.13814998 -17.73828125 57.4609375 C-17.81755859 58.66041016 -17.89683594 59.85988281 -17.97851562 61.09570312 C-18.13316236 67.68796965 -17.44334031 72.16583595 -13.203125 77.36328125 C-5.79461521 83.78644543 2.85405814 82.61401345 12.07421875 82.1484375 C13.81106905 82.09819267 15.54805986 82.05258007 17.28515625 82.01171875 C21.51002389 81.90234889 25.72804877 81.73032639 29.94921875 81.5234375 C29.00297754 80.22343666 28.05143755 78.92729149 27.09765625 77.6328125 C26.56833496 76.91061523 26.03901367 76.18841797 25.49365234 75.44433594 C23.55238582 73.02987419 21.74239422 71.85352105 18.94921875 70.5234375 C18.294375 70.18570313 17.63953125 69.84796875 16.96484375 69.5 C13.97816517 67.96305956 11.14234107 66.58781161 7.94921875 65.5234375 C7.82546875 64.7190625 7.70171875 63.9146875 7.57421875 63.0859375 C7.36796875 62.2403125 7.16171875 61.3946875 6.94921875 60.5234375 C6.28921875 60.1934375 5.62921875 59.8634375 4.94921875 59.5234375 C4.94921875 57.8734375 4.94921875 56.2234375 4.94921875 54.5234375 C7.25921875 54.8534375 9.56921875 55.1834375 11.94921875 55.5234375 C11.63984375 56.6371875 11.63984375 56.6371875 11.32421875 57.7734375 C10.88495078 60.99473597 11.13015977 61.87800602 12.94921875 64.5234375 C15.46867764 65.919562 15.46867764 65.919562 18.44921875 67.0859375 C24.92031768 70.09231839 28.37206435 73.84176948 32.6953125 79.328125 C34.76298127 81.78954176 34.76298127 81.78954176 37.734375 81.84375 C38.46527344 81.73804688 39.19617188 81.63234375 39.94921875 81.5234375 C40.26318079 77.598912 40.14421552 74.97547546 38.57421875 71.3359375 C34.91861052 67.4192144 30.93516768 66.21358968 25.94921875 64.5234375 C18.74800656 61.78465049 15.52625782 58.33899946 12.0625 51.546875 C10.9941536 49.38259377 10.9941536 49.38259377 8.94921875 47.5234375 C8.5703125 45.39453125 8.5703125 45.39453125 8.38671875 42.9609375 C8.36472572 39.94295962 8.36472572 39.94295962 6.94921875 37.5234375 C3.46133241 36.95398667 0.97357116 36.95603472 -2.16552734 38.69482422 C-5.39762002 41.21319133 -7.69661263 43.10257632 -8.71166992 47.17480469 C-8.87472821 50.20251803 -8.79952675 53.1224281 -8.61328125 56.1484375 C-8.58556641 57.17195313 -8.55785156 58.19546875 -8.52929688 59.25 C-8.37844951 63.79316766 -8.02662127 68.07688817 -7.05078125 72.5234375 C-8.70078125 72.5234375 -10.35078125 72.5234375 -12.05078125 72.5234375 C-12.38078125 71.8634375 -12.71078125 71.2034375 -13.05078125 70.5234375 C-13.71078125 70.5234375 -14.37078125 70.5234375 -15.05078125 70.5234375 C-15.05078125 69.8634375 -15.05078125 69.2034375 -15.05078125 68.5234375 C-14.39078125 68.5234375 -13.73078125 68.5234375 -13.05078125 68.5234375 C-11.75701547 65.93590594 -11.88245728 63.97384765 -11.86328125 61.0859375 C-11.84910156 60.11785156 -11.83492187 59.14976562 -11.8203125 58.15234375 C-11.85928674 55.29077023 -11.85928674 55.29077023 -14.05078125 52.5234375 C-13.39078125 51.5334375 -12.73078125 50.5434375 -12.05078125 49.5234375 C-11.74140625 48.3684375 -11.43203125 47.2134375 -11.11328125 46.0234375 C-10.13348557 42.79587525 -9.64247662 41.52611119 -7.05078125 39.5234375 C-7.38078125 38.8634375 -7.71078125 38.2034375 -8.05078125 37.5234375 Z " fill="#F0F1F1" transform="translate(100.05078125,150.4765625)"/>
<path d="M0 0 C1.58206057 0.00667536 3.16410534 0.0186375 4.74609375 0.03515625 C5.55240234 0.03966797 6.35871094 0.04417969 7.18945312 0.04882812 C9.18753131 0.06065107 11.18557158 0.07858711 13.18359375 0.09765625 C17.97867312 10.74754129 22.7721389 21.3981503 27.56304932 32.0499115 C29.81099207 37.04755907 32.06034871 42.04456455 34.31166077 47.04069519 C35.53018255 49.74573971 36.74721045 52.45145419 37.96377563 55.15737915 C38.52657214 56.40830686 39.09002754 57.65893835 39.65414429 58.90927124 C40.4286859 60.62624636 41.20074736 62.34433967 41.97265625 64.0625 C42.40271973 65.01761475 42.8327832 65.97272949 43.27587891 66.95678711 C44.18359375 69.09765625 44.18359375 69.09765625 44.18359375 70.09765625 C38.24359375 70.09765625 32.30359375 70.09765625 26.18359375 70.09765625 C24.049219 65.82890676 21.9560955 61.52891062 20.18359375 57.09765625 C9.62359375 56.76765625 -0.93640625 56.43765625 -11.81640625 56.09765625 C-12.80640625 59.06765625 -13.79640625 62.03765625 -14.81640625 65.09765625 C-15.47640625 66.74765625 -16.13640625 68.39765625 -16.81640625 70.09765625 C-22.75640625 70.09765625 -28.69640625 70.09765625 -34.81640625 70.09765625 C-32.56675471 63.34870163 -32.56675471 63.34870163 -31.09570312 60.10961914 C-30.76744034 59.38274902 -30.43917755 58.65587891 -30.10096741 57.90698242 C-29.57339088 56.75033081 -29.57339088 56.75033081 -29.03515625 55.5703125 C-28.66502914 54.75208008 -28.29490204 53.93384766 -27.91355896 53.09082031 C-27.12416298 51.34613833 -26.33351556 49.60202212 -25.54171753 47.85842896 C-23.49310703 43.34715914 -21.45305837 38.83202828 -19.4140625 34.31640625 C-18.81411217 32.98815575 -18.81411217 32.98815575 -18.20204163 31.6330719 C-14.56601316 23.56950464 -11.02138681 15.46883091 -7.546875 7.33422852 C-7.19109375 6.50463623 -6.8353125 5.67504395 -6.46875 4.8203125 C-6.16960693 4.11656494 -5.87046387 3.41281738 -5.56225586 2.68774414 C-4.10045475 -0.42869143 -3.91759192 0.10024544 0 0 Z M4.18359375 18.09765625 C0.42313117 25.98209278 -2.95467327 33.84265726 -5.81640625 42.09765625 C0.78359375 42.09765625 7.38359375 42.09765625 14.18359375 42.09765625 C12.25445522 36.31024066 10.29319173 30.66730018 7.99609375 25.03515625 C7.72345703 24.36033203 7.45082031 23.68550781 7.16992188 22.99023438 C6.51024064 21.35839131 5.84727954 19.72787473 5.18359375 18.09765625 C4.85359375 18.09765625 4.52359375 18.09765625 4.18359375 18.09765625 Z " fill="#E8E8E8" transform="translate(213.81640625,157.90234375)"/>
<path d="M0 0 C2.15955502 1.65834988 4.2335461 3.3559862 6.2578125 5.17578125 C5.70210395 8.91644625 4.2480275 10.51835615 1.4453125 12.98828125 C0.75824219 13.61347656 0.07117188 14.23867187 -0.63671875 14.8828125 C-2.7421875 16.17578125 -2.7421875 16.17578125 -4.87109375 15.99609375 C-6.7421875 15.17578125 -6.7421875 15.17578125 -8.8671875 13.23828125 C-14.2495962 9.37698805 -20.37947015 8.70360131 -26.8671875 9.61328125 C-32.39636658 10.98904549 -36.20029392 13.74417756 -39.7421875 18.17578125 C-43.36346256 24.45975856 -43.40998588 31.23855853 -41.7421875 38.17578125 C-39.38425718 43.79347978 -36.17024891 47.28851454 -30.7421875 50.17578125 C-23.94596098 52.23566846 -17.72746507 51.99973742 -11.3671875 48.80078125 C-9.81854731 47.93818362 -8.27630325 47.06395352 -6.7421875 46.17578125 C-5.4221875 45.51578125 -4.1021875 44.85578125 -2.7421875 44.17578125 C0.2278125 47.14578125 3.1978125 50.11578125 6.2578125 53.17578125 C3.23982098 59.21176428 -1.63213074 62.61798313 -7.9296875 64.98828125 C-20.327151 68.57927068 -32.10897081 67.68814003 -43.42578125 61.578125 C-51.79084212 56.51394818 -57.67935689 49.30776932 -60.1171875 39.67578125 C-61.91305827 29.14124031 -60.75929597 19.6591777 -55.0546875 10.48828125 C-49.2857696 2.44589816 -42.0773204 -2.99043553 -32.4140625 -5.40625 C-21.17067718 -7.16508367 -9.66560058 -6.42996506 0 0 Z " fill="#E8E8E8" transform="translate(321.7421875,162.82421875)"/>
<path d="M0 0 C3.485625 -0.0825 6.97125 -0.165 10.5625 -0.25 C11.64732666 -0.28641602 12.73215332 -0.32283203 13.84985352 -0.36035156 C20.15588139 -0.43228123 23.87459327 0.25927977 29 4 C32.15465745 7.56171003 32.62010892 11.08216482 32.50390625 15.70703125 C31.59234508 19.85498789 28.98005051 22.08203387 26 25 C29.465 30.445 29.465 30.445 33 36 C26.56156435 36.79377974 26.56156435 36.79377974 23 36 C20.84992311 33.85842144 19.3378385 31.60099038 17.671875 29.0703125 C15.79934179 26.75152138 14.96779053 26.29775603 12.0625 25.9375 C11.051875 25.958125 10.04125 25.97875 9 26 C9 29.3 9 32.6 9 36 C6.03 36 3.06 36 0 36 C0 24.12 0 12.24 0 0 Z M9 7 C9 10.96 9 14.92 9 19 C10.5675 19.061875 12.135 19.12375 13.75 19.1875 C14.63171875 19.22230469 15.5134375 19.25710938 16.421875 19.29296875 C19.44671583 18.94923684 20.75583602 17.99772541 23 16 C22.67 13.69 22.34 11.38 22 9 C17.50343896 6.75171948 13.92127034 6.83317728 9 7 Z " fill="#FEFEFE" transform="translate(232,271)"/>
<path d="M0 0 C2.97 0 5.94 0 9 0 C9 4.62 9 9.24 9 14 C14.28 14 19.56 14 25 14 C25 9.38 25 4.76 25 0 C27.97 0 30.94 0 34 0 C34 11.88 34 23.76 34 36 C31.03 36 28.06 36 25 36 C25 31.38 25 26.76 25 22 C19.72 22 14.44 22 9 22 C9 26.62 9 31.24 9 36 C6.03 36 3.06 36 0 36 C0 24.12 0 12.24 0 0 Z " fill="#FEFEFE" transform="translate(191,271)"/>
<path d="M0 0 C9.24 0 18.48 0 28 0 C28 2.31 28 4.62 28 7 C21.73 7 15.46 7 9 7 C9 9.31 9 11.62 9 14 C14.61 14 20.22 14 26 14 C26 16.64 26 19.28 26 22 C20.72 22 15.44 22 10 22 C9.67 24.31 9.34 26.62 9 29 C15.6 29 22.2 29 29 29 C29 31.31 29 33.62 29 36 C19.43 36 9.86 36 0 36 C0 24.12 0 12.24 0 0 Z " fill="#FEFEFE" transform="translate(307,271)"/>
<path d="M0 0 C0.495 0.474375 0.99 0.94875 1.5 1.4375 C1.5 2.0975 1.5 2.7575 1.5 3.4375 C-0.12626404 4.81982443 -1.7925002 6.15687515 -3.5 7.4375 C-4.06847656 7.12425781 -4.63695312 6.81101562 -5.22265625 6.48828125 C-8.86546409 4.80746597 -12.50407522 4.37327978 -16.5 4.4375 C-20.170261 5.99931319 -21.2727373 7.09660596 -23.5 10.4375 C-24.03365342 16.80585603 -24.03365342 16.80585603 -21.5 22.4375 C-18.33764307 24.41397308 -15.94344108 24.65969582 -12.25 24.5625 C-10.6825 24.52125 -9.115 24.48 -7.5 24.4375 C-7.5 20.8075 -7.5 17.1775 -7.5 13.4375 C-4.86 13.4375 -2.22 13.4375 0.5 13.4375 C0.5 18.7175 0.5 23.9975 0.5 29.4375 C-6.87405318 33.30585577 -13.57482172 35.22813113 -21.80078125 32.7421875 C-26.6203533 30.58200266 -29.48462098 27.73213073 -32.5 23.4375 C-34.33866817 17.92149549 -34.61012241 11.52891712 -32.62890625 6.01171875 C-29.44216785 0.46365943 -25.45426225 -2.07965166 -19.5 -4.3125 C-12.03667974 -5.24541503 -6.31851144 -3.94906965 0 0 Z " fill="#FDFDFD" transform="translate(183.5,274.5625)"/>
<path d="M0 0 C1.734375 1.60546875 1.734375 1.60546875 3 3 C2.03432113 5.41419718 1.24128309 6.80863755 -0.8125 8.4375 C-1.8953125 8.7159375 -1.8953125 8.7159375 -3 9 C-3.721875 8.525625 -4.44375 8.05125 -5.1875 7.5625 C-8.7519503 5.58224983 -10.95030564 5.74473589 -14.90625 6.37109375 C-17.24122104 6.92925704 -17.24122104 6.92925704 -19.5625 9.0625 C-21.7713991 13.57633729 -21.7868946 17.5081671 -20.25 22.375 C-18.59474722 24.52682862 -17.61360243 25.17465186 -15 26 C-10.99309697 26.46994542 -8.01651426 26.60990855 -4.5 24.5 C-4.005 24.005 -3.51 23.51 -3 23 C-0.53199953 24.15173355 1.04783565 25.04783565 3 27 C3 27.99 3 28.98 3 30 C-3.5599158 34.95638083 -8.9629399 35.78061733 -17 35 C-22.94228154 33.25227014 -26.49448357 29.99270522 -30 25 C-31.83866817 19.48399549 -32.11012241 13.09141712 -30.12890625 7.57421875 C-26.94216785 2.02615943 -22.95426225 -0.51715166 -17 -2.75 C-10.75987095 -3.53001613 -5.56481915 -2.9396762 0 0 Z " fill="#FDFDFD" transform="translate(299,273)"/>
<path d="M0 0 C2.33333333 0 4.66666667 0 7 0 C7.98419922 -0.08701172 7.98419922 -0.08701172 8.98828125 -0.17578125 C13.48779409 -0.44045848 15.33956137 -0.52284724 19 2.375 C22.19992555 6.57490229 22.16543772 8.69783827 21.4921875 13.8046875 C21 16 21 16 19.4375 18.5 C15.90736955 20.67238797 13.14028123 20.79966381 9 21 C8.34 20.67 7.68 20.34 7 20 C6.7834375 21.7015625 6.7834375 21.7015625 6.5625 23.4375 C6 27 6 27 5 28 C3.35 28 1.7 28 0 28 C0 18.76 0 9.52 0 0 Z M6 7 C5.58333333 10.5 5.58333333 10.5 6 14 C8.83573263 16.33775029 8.83573263 16.33775029 12.125 15.75 C13.07375 15.5025 14.0225 15.255 15 15 C16.38125018 12.23749964 16.19079306 10.05268901 16 7 C14.11499729 4.68436913 14.11499729 4.68436913 11 4.75 C7.88500271 4.68436913 7.88500271 4.68436913 6 7 Z " fill="#FDFDFD" transform="translate(332,340)"/>
<path d="M0 0 C1.65 0 3.3 0 5 0 C5.77660074 6.54563484 6.1072792 13.0387698 6.125 19.625 C6.12951172 20.33591797 6.13402344 21.04683594 6.13867188 21.77929688 C6.12381213 26.87618787 6.12381213 26.87618787 5 28 C-0.75426158 28.88907046 -6.12083136 29.63700632 -11.6875 27.75 C-14.28278837 25.78599799 -15.80630588 24.20270535 -16.3359375 20.9140625 C-16.40639369 16.78532948 -16.3674057 14.58784911 -14.125 11 C-11.28364542 8.32578393 -9.79646655 7.8610424 -6 7.875 C-4.948125 7.87113281 -4.948125 7.87113281 -3.875 7.8671875 C-2 8 -2 8 0 9 C0 6.03 0 3.06 0 0 Z M-10 14 C-11.17110449 16.8596006 -11.17110449 16.8596006 -11 20 C-9.52006844 22.56338689 -9.52006844 22.56338689 -7 24 C-3.60845705 23.83849795 -2.41703243 23.41703243 0 21 C0.58345476 18.04253508 0.58345476 18.04253508 0 15 C-3.95471135 11.95791435 -5.82432728 11.129225 -10 14 Z " fill="#FDFDFD" transform="translate(173,332)"/>
<path d="M0 0 C1.98 0 3.96 0 6 0 C6 2.97 6 5.94 6 9 C6.66 8.67 7.32 8.34 8 8 C15.21726041 7.41796287 15.21726041 7.41796287 18.4375 9.8125 C21.23744722 13.73242611 21.1088854 17.00257475 21.0625 21.6875 C21.05347656 22.86699219 21.04445313 24.04648437 21.03515625 25.26171875 C21.02355469 26.16535156 21.01195312 27.06898438 21 28 C19.02 28 17.04 28 15 28 C14.67 23.38 14.34 18.76 14 14 C12.02 14 10.04 14 8 14 C6.12175109 15.87824891 6.60897603 19.03935276 6.4375 21.5625 C6.31181641 23.35880859 6.31181641 23.35880859 6.18359375 25.19140625 C6.12300781 26.11824219 6.06242187 27.04507812 6 28 C4.02 28 2.04 28 0 28 C0 18.76 0 9.52 0 0 Z " fill="#FDFDFD" transform="translate(284,332)"/>
<path d="M0 0 C-0.33 1.65 -0.66 3.3 -1 5 C-2.04800781 4.87431641 -2.04800781 4.87431641 -3.1171875 4.74609375 C-4.02726562 4.64425781 -4.93734375 4.54242188 -5.875 4.4375 C-6.77992187 4.33308594 -7.68484375 4.22867187 -8.6171875 4.12109375 C-11.01653057 3.80325148 -11.01653057 3.80325148 -13 5 C-13.33 5.99 -13.66 6.98 -14 8 C-13.25234375 8.18175781 -12.5046875 8.36351562 -11.734375 8.55078125 C-10.74953125 8.80214844 -9.7646875 9.05351562 -8.75 9.3125 C-7.77546875 9.55613281 -6.8009375 9.79976563 -5.796875 10.05078125 C-2.95416699 11.01555506 -1.15805889 11.92261621 1 14 C1.5 17.4375 1.5 17.4375 1 21 C-1.21863029 23.90717073 -2.51944929 24.83981643 -6 26 C-11.63247677 26.43326744 -15.04848224 25.42523319 -20 23 C-19.67 21.35 -19.34 19.7 -19 18 C-18.154375 18.33 -17.30875 18.66 -16.4375 19 C-12.79010784 20.06105954 -9.77725336 20.15109013 -6 20 C-5.67 19.01 -5.34 18.02 -5 17 C-5.74765625 16.76925781 -6.4953125 16.53851563 -7.265625 16.30078125 C-15.26446635 13.65195028 -15.26446635 13.65195028 -18.75 10.5625 C-20 8 -20 8 -20 5.4375 C-18.57216684 1.95715667 -16.69100375 -0.21489112 -13.25 -1.8125 C-8.72146872 -2.18987761 -4.30310136 -1.43436712 0 0 Z " fill="#FDFDFD" transform="translate(113,335)"/>
<path d="M0 0 C2.31 0.33 4.62 0.66 7 1 C6.9175 2.19625 6.835 3.3925 6.75 4.625 C6.90967053 6.91078839 6.90967053 6.91078839 8 9 C10.79140215 10.73149168 13.68273724 11.91793733 16.69921875 13.21484375 C22.36219405 16.27754164 25.99808209 21.02416402 30 26 C26.11506838 28.58995441 22.89432764 28.25225542 18.39453125 28.1953125 C17.55532639 28.1924826 16.71612152 28.18965271 15.85148621 28.18673706 C13.17167897 28.17554385 10.49220619 28.15044101 7.8125 28.125 C5.99544754 28.11496908 4.17838983 28.10584343 2.36132812 28.09765625 C-2.09257675 28.07560734 -6.54623167 28.04108351 -11 28 C-11 28.66 -11 29.32 -11 30 C-1.43 30.33 8.14 30.66 18 31 C18 31.33 18 31.66 18 32 C-10.91831276 34.26028807 -10.91831276 34.26028807 -17.953125 29.10546875 C-21.18267991 26.08435356 -23.68345067 22.75600872 -26 19 C-25.67 18.34 -25.34 17.68 -25 17 C-20.66759543 17.95101564 -18.90625366 19.06031457 -16.4375 22.5625 C-13.1853362 25.91111351 -10.42749417 26.47135608 -5.8082428 26.66783142 C-1.72086777 26.69505195 2.35314767 26.58380634 6.4375 26.4375 C8.13991005 26.40235368 9.84238966 26.37042048 11.54492188 26.34179688 C15.69834225 26.26499976 19.84840275 26.14440614 24 26 C18.62153533 19.32105303 18.62153533 19.32105303 11.25 15.125 C8.18557144 13.90094055 5.76438037 12.84292025 3 11 C2.3125 8.375 2.3125 8.375 2 6 C1.01 5.67 0.02 5.34 -1 5 C-0.67 3.35 -0.34 1.7 0 0 Z " fill="#F3F4F4" transform="translate(105,205)"/>
<path d="M0 0 C0.76441406 0.17144531 1.52882813 0.34289062 2.31640625 0.51953125 C4.4375 1.1875 4.4375 1.1875 7.4375 3.1875 C6.7775 4.5075 6.1175 5.8275 5.4375 7.1875 C4.87160156 7.02894531 4.30570312 6.87039063 3.72265625 6.70703125 C-0.04891106 5.84956381 -3.72502092 5.6787433 -7.5625 6.1875 C-9.81713249 7.6103264 -9.81713249 7.6103264 -10.5625 10.1875 C-11.0663241 14.81071797 -11.0663241 14.81071797 -9.5 19.0625 C-6.56168142 20.76862046 -3.92437193 21.00739972 -0.5625 21.1875 C0.4275 20.5275 1.4175 19.8675 2.4375 19.1875 C4.625 19.5625 4.625 19.5625 6.4375 20.1875 C6.4375 21.5075 6.4375 22.8275 6.4375 24.1875 C1.88534545 26.85217584 -1.2930664 27.75208217 -6.5625 27.1875 C-11.20836577 25.45668726 -14.04074791 23.48381838 -16.5625 19.1875 C-17.76152988 14.74451941 -17.91081968 11.27343782 -16.5 6.875 C-12.28200219 1.02422885 -6.98739234 -1.64339684 0 0 Z " fill="#FDFDFD" transform="translate(273.5625,333.8125)"/>
<path d="M0 0 C3 1.5 3 1.5 5 4 C5.6941666 6.73491202 5.85771032 9.15420636 6 12 C1.05 12 -3.9 12 -9 12 C-6.44003678 15.24349822 -6.44003678 15.24349822 -3.73828125 15.07421875 C-2.93777344 14.94660156 -2.13726562 14.81898438 -1.3125 14.6875 C-0.10013672 14.50767578 -0.10013672 14.50767578 1.13671875 14.32421875 C1.75160156 14.21722656 2.36648437 14.11023438 3 14 C3.66 15.32 4.32 16.64 5 18 C0.69567654 20.69020216 -2.20941319 21.42941152 -7.1015625 20.5859375 C-10.00621158 19.68944087 -11.87489866 18.12510134 -14 16 C-15.53214888 12.93570224 -15.22938548 10.3834358 -15 7 C-11.72961267 -0.00797284 -7.18864197 -0.9837089 0 0 Z M-9 6 C-9 6.66 -9 7.32 -9 8 C-6.03 8 -3.06 8 0 8 C-0.33 7.01 -0.66 6.02 -1 5 C-5.17810069 3.81068813 -5.17810069 3.81068813 -9 6 Z " fill="#FDFDFD" transform="translate(197,340)"/>
<path d="M0 0 C3 2.0625 3 2.0625 5 5 C5.33 7.31 5.66 9.62 6 12 C1.05 12.33 -3.9 12.66 -9 13 C-5.69840966 15.20106023 -4.79850432 15.18529289 -1 15 C0.32 15 1.64 15 3 15 C3 16.32 3 17.64 3 19 C-0.73297298 20.98314189 -3.87030473 21.3509157 -8.0625 20.66015625 C-11.72756318 19.41137464 -13.10728871 17.25309753 -15 14 C-15.931754 9.77824738 -15.48638183 6.76199819 -13.125 3.0625 C-9.22556807 -0.72224276 -5.23389564 -0.78644028 0 0 Z M-6 4 C-8.33454661 5.83358335 -8.33454661 5.83358335 -10 8 C-6.7 8 -3.4 8 0 8 C-0.33 7.01 -0.66 6.02 -1 5 C-3.29294488 4.14025199 -3.29294488 4.14025199 -6 4 Z " fill="#FCFCFC" transform="translate(386,340)"/>
<path d="M0 0 C0.84304688 -0.03996094 1.68609375 -0.07992188 2.5546875 -0.12109375 C6.39286629 0.71303933 7.80495624 2.31388868 10.125 5.4375 C10.49271245 8.2762401 10.61130804 10.45570151 10.4375 13.25 C10.41494141 13.94287109 10.39238281 14.63574219 10.36914062 15.34960938 C10.31062661 17.04651573 10.2209548 18.74229861 10.125 20.4375 C8.0649629 20.68784126 6.00172534 20.91193346 3.9375 21.125 C2.21466797 21.31642578 2.21466797 21.31642578 0.45703125 21.51171875 C-3.30772576 21.42786133 -4.96718275 20.78941101 -7.875 18.4375 C-8.6875 15.25 -8.6875 15.25 -8.875 12.4375 C-6.66131706 10.22381706 -4.94483375 8.57197079 -1.76171875 8.171875 C0.20246787 8.18583014 2.1652625 8.30463644 4.125 8.4375 C3.15477977 6.70969734 3.15477977 6.70969734 1.125 5.4375 C-1.64114782 5.47023548 -4.13530547 5.94345672 -6.875 6.4375 C-7.205 5.1175 -7.535 3.7975 -7.875 2.4375 C-4.72405867 0.33687245 -3.6525634 0.09436714 0 0 Z M-1.875 12.4375 C-2.205 13.7575 -2.535 15.0775 -2.875 16.4375 C-0.895 16.4375 1.085 16.4375 3.125 16.4375 C3.455 15.1175 3.785 13.7975 4.125 12.4375 C2.145 12.4375 0.165 12.4375 -1.875 12.4375 Z " fill="#FDFDFD" transform="translate(316.875,339.5625)"/>
<path d="M0 0 C1.98 0 3.96 0 6 0 C6.33 4.62 6.66 9.24 7 14 C8.65 14.33 10.3 14.66 12 15 C14.77042109 12.22957891 14.39796106 10.23466195 14.625 6.375 C14.69976562 5.18648438 14.77453125 3.99796875 14.8515625 2.7734375 C14.90054688 1.85820312 14.94953125 0.94296875 15 0 C16.65 0 18.3 0 20 0 C20 6.6 20 13.2 20 20 C7.80743243 21.35472973 7.80743243 21.35472973 4.19921875 19.76953125 C1.80601565 17.84391668 0.89618317 16.92014739 0 14 C-0.1953125 10.546875 -0.1953125 10.546875 -0.125 6.75 C-0.10695312 5.48671875 -0.08890625 4.2234375 -0.0703125 2.921875 C-0.04710937 1.95765625 -0.02390625 0.9934375 0 0 Z " fill="#FDFDFD" transform="translate(133,340)"/>
<path d="M0 0 C3.58875 -0.0928125 3.58875 -0.0928125 7.25 -0.1875 C8.37003418 -0.22846802 8.37003418 -0.22846802 9.51269531 -0.27026367 C12.58938452 -0.30874297 14.70399594 -0.16184738 17.421875 1.32421875 C20.68774735 4.79218716 20.10384316 8.6810956 20.0625 13.1875 C20.05347656 14.45980469 20.04445312 15.73210937 20.03515625 17.04296875 C20.02355469 18.01878906 20.01195312 18.99460937 20 20 C18.02 20 16.04 20 14 20 C13.67 15.38 13.34 10.76 13 6 C11.02 6 9.04 6 7 6 C5.64908472 8.70183055 5.66141942 11.11808206 5.4375 14.125 C5.35371094 15.22070312 5.26992187 16.31640625 5.18359375 17.4453125 C5.12300781 18.28835938 5.06242188 19.13140625 5 20 C3.35 20 1.7 20 0 20 C0 13.4 0 6.8 0 0 Z " fill="#FDFDFD" transform="translate(207,340)"/>
<path d="M0 0 C0.268125 0.61875 0.53625 1.2375 0.8125 1.875 C1.95556848 4.2995233 1.95556848 4.2995233 5 6 C4.01 6.495 4.01 6.495 3 7 C3.33 13.6 3.66 20.2 4 27 C4.99 27.33 5.98 27.66 7 28 C6 31 6 31 4 32 C4 41.57 4 51.14 4 61 C0 60 0 60 -1 59 C-1.09851061 57.44645154 -1.12798663 55.88845509 -1.12939453 54.33178711 C-1.13254669 53.33662582 -1.13569885 52.34146454 -1.13894653 51.31614685 C-1.1369223 50.23084183 -1.13489807 49.1455368 -1.1328125 48.02734375 C-1.13376923 46.9157338 -1.13472595 45.80412384 -1.13571167 44.65882874 C-1.13639407 42.29737288 -1.13453563 39.93591517 -1.13037109 37.57446289 C-1.12505883 33.97733264 -1.13029575 30.38032928 -1.13671875 26.78320312 C-1.13605729 24.48958306 -1.13477472 22.19596307 -1.1328125 19.90234375 C-1.13483673 18.83120834 -1.13686096 17.76007294 -1.13894653 16.65647888 C-1.12144636 11.00903787 -0.84350214 5.58579346 0 0 Z " fill="#E8EAEA" transform="translate(80,163)"/>
<path d="M0 0 C1.98 0 3.96 0 6 0 C6 1.32 6 2.64 6 4 C7.65 4 9.3 4 11 4 C11 5.65 11 7.3 11 9 C9.35 9 7.7 9 6 9 C6 12.63 6 16.26 6 20 C7.65 19.67 9.3 19.34 11 19 C11.33 20.65 11.66 22.3 12 24 C8.8125 24.8125 8.8125 24.8125 5 25 C2.0625 23.25 2.0625 23.25 0 20 C-0.40539783 16.29424801 -0.29248153 12.71126561 0 9 C-0.99 9 -1.98 9 -3 9 C-3 7.35 -3 5.7 -3 4 C-2.01 4 -1.02 4 0 4 C0 2.68 0 1.36 0 0 Z " fill="#FDFDFD" transform="translate(118,336)"/>
<path d="M0 0 C1.99117388 0.47675994 3.96095456 1.00651771 5.93359375 1.5546875 C9.31648475 2.28370371 12.55135583 2.12316586 16 2 C12.89634272 4.06910486 12.35194595 4.22287574 8.875 4.0625 C7.59625 4.041875 6.3175 4.02125 5 4 C4.67 4.33 4.34 4.66 4 5 C2.4382681 5.0794101 0.87547966 5.13843786 -0.6875 5.1875 C-4.60496273 5.52985706 -6.74414885 6.09101898 -9.5625 8.875 C-12.11527073 11.78893873 -12.11527073 11.78893873 -13 15 C-12.25234375 14.90460938 -11.5046875 14.80921875 -10.734375 14.7109375 C-9.74953125 14.60007813 -8.7646875 14.48921875 -7.75 14.375 C-6.77546875 14.25898438 -5.8009375 14.14296875 -4.796875 14.0234375 C-1.86570607 13.99887463 -0.45471036 14.4687283 2 16 C2 16.99 2 17.98 2 19 C-0.10277123 19.22197585 -2.20732302 19.42713637 -4.3125 19.625 C-5.48425781 19.74101562 -6.65601562 19.85703125 -7.86328125 19.9765625 C-11 20 -11 20 -14 18 C-14.33 17.34 -14.66 16.68 -15 16 C-15.66 17.32 -16.32 18.64 -17 20 C-17.62358428 11.07928048 -17.62358428 11.07928048 -15.375 7.1875 C-14.59125 6.465625 -13.8075 5.74375 -13 5 C-12.071875 4.071875 -11.14375 3.14375 -10.1875 2.1875 C-6.30861324 -0.47448111 -4.62351053 -0.55800989 0 0 Z " fill="#EDEEED" transform="translate(96,151)"/>
<path d="M0 0 C1.98 0 3.96 0 6 0 C6 1.32 6 2.64 6 4 C7.65 4 9.3 4 11 4 C11 5.65 11 7.3 11 9 C9.35 9 7.7 9 6 9 C6.33 12.3 6.66 15.6 7 19 C8.65 19.33 10.3 19.66 12 20 C12 21.32 12 22.64 12 24 C8.47078888 24.90282145 6.59289113 25.25033181 3.1875 23.8125 C1 22 1 22 0.1875 20.3125 C-0.09206819 16.86449226 -0.05765508 13.45930464 0 10 C-0.99 9.67 -1.98 9.34 -3 9 C-3 7.35 -3 5.7 -3 4 C-1.68 4 -0.36 4 1 4 C0.67 2.68 0.34 1.36 0 0 Z " fill="#FDFDFD" transform="translate(232,336)"/>
<path d="M0 0 C1.65 0 3.3 0 5 0 C5 1.32 5 2.64 5 4 C6.98 4 8.96 4 11 4 C11 5.65 11 7.3 11 9 C9.02 9 7.04 9 5 9 C5.33 12.63 5.66 16.26 6 20 C7.65 19.67 9.3 19.34 11 19 C11.33 20.65 11.66 22.3 12 24 C8.14258791 24.90762637 5.78136501 25.31587096 2.0625 23.8125 C-1.25065905 19.29455584 -0.38331233 14.41748094 0 9 C-0.99 9 -1.98 9 -3 9 C-3 7.35 -3 5.7 -3 4 C-2.01 4 -1.02 4 0 4 C0 2.68 0 1.36 0 0 Z " fill="#FDFDFD" transform="translate(358,336)"/>
<path d="M0 0 C0.763125 0.20625 1.52625 0.4125 2.3125 0.625 C2.9375 2.5 2.9375 2.5 3.3125 4.625 C2.6525 5.285 1.9925 5.945 1.3125 6.625 C1.08605171 9.43942874 0.98824574 12.12353035 1 14.9375 C0.98388672 15.69740234 0.96777344 16.45730469 0.95117188 17.24023438 C0.94719148 21.82167309 1.24241673 24.97669476 4.3125 28.625 C6.30943687 29.83643606 6.30943687 29.83643606 8.5 30.4375 C9.758125 30.829375 11.01625 31.22125 12.3125 31.625 C12.3125 33.275 12.3125 34.925 12.3125 36.625 C10.9925 37.285 9.6725 37.945 8.3125 38.625 C5.3125 36.625 5.3125 36.625 4.3125 33.625 C2.64979713 32.28672696 0.98333819 30.95310215 -0.6875 29.625 C-0.6875 28.965 -0.6875 28.305 -0.6875 27.625 C-1.3475 27.625 -2.0075 27.625 -2.6875 27.625 C-3.47751249 24.85434376 -3.7910017 22.46218082 -3.71484375 19.5859375 C-3.70259766 18.84085938 -3.69035156 18.09578125 -3.67773438 17.328125 C-3.64239915 15.76814028 -3.60329884 14.20823658 -3.56054688 12.6484375 C-3.53091434 10.64039773 -3.60234003 8.63145199 -3.6875 6.625 C-4.3475 5.965 -5.0075 5.305 -5.6875 4.625 C-5.6875 3.635 -5.6875 2.645 -5.6875 1.625 C-2.6875 -0.375 -2.6875 -0.375 0 0 Z M-1.6875 2.625 C-0.6875 4.625 -0.6875 4.625 -0.6875 4.625 Z " fill="#F5F7F7" transform="translate(101.6875,192.375)"/>
<path d="M0 0 C4 0 8 0 12 0 C12 1.65 12 3.3 12 5 C10.35 5.66 8.7 6.32 7 7 C6.67 11.29 6.34 15.58 6 20 C4.02 20 2.04 20 0 20 C0 13.4 0 6.8 0 0 Z " fill="#FCFCFC" transform="translate(395,340)"/>
<path d="M0 0 C0.66 0 1.32 0 2 0 C2 3 2 3 0.5 4.6875 C0.005 5.120625 -0.49 5.55375 -1 6 C-0.67 6.99 -0.34 7.98 0 9 C0.33 8.01 0.66 7.02 1 6 C2.06325482 9.28642398 2.08418226 10.77083719 0.875 14.0625 C-1.08919031 17.13973148 -3.03027306 18.91316485 -6 21 C-6.33 20.01 -6.66 19.02 -7 18 C-7.99 17.67 -8.98 17.34 -10 17 C-8.625 15.5 -8.625 15.5 -7 14 C-6.34 14 -5.68 14 -5 14 C-4.67 13.01 -4.34 12.02 -4 11 C-4.66 10.34 -5.32 9.68 -6 9 C-8.44963177 8.97746557 -8.44963177 8.97746557 -11.125 9.375 C-12.03507813 9.48585937 -12.94515625 9.59671875 -13.8828125 9.7109375 C-14.93082031 9.85402344 -14.93082031 9.85402344 -16 10 C-16 8.68 -16 7.36 -16 6 C-14.92878906 5.73445312 -13.85757813 5.46890625 -12.75390625 5.1953125 C-11.35666195 4.83896832 -9.95953236 4.48217418 -8.5625 4.125 C-7.85544922 3.95097656 -7.14839844 3.77695313 -6.41992188 3.59765625 C-4.59631043 3.12648392 -2.79556771 2.56876943 -1 2 C-0.67 1.34 -0.34 0.68 0 0 Z " fill="#F5F5F5" transform="translate(151,198)"/>
<path d="M0 0 C5.82071622 -0.02464638 11.64140234 -0.0428343 17.4621582 -0.05493164 C19.44393441 -0.05997267 21.42570689 -0.06680538 23.4074707 -0.07543945 C26.24952109 -0.08751515 29.09152247 -0.09323045 31.93359375 -0.09765625 C32.82525742 -0.10281754 33.71692108 -0.10797882 34.63560486 -0.11329651 C36.75740601 -0.11349177 38.8791078 -0.0621003 41 0 C42 1 42 1 42.09765625 3.28515625 C42.08605469 4.20167969 42.07445312 5.11820313 42.0625 6.0625 C42.05347656 6.98160156 42.04445312 7.90070313 42.03515625 8.84765625 C42.02355469 9.55792969 42.01195312 10.26820313 42 11 C41.01 10.34 40.02 9.68 39 9 C38.34 9.66 37.68 10.32 37 11 C37 8.03 37 5.06 37 2 C35.42532959 2.01571045 35.42532959 2.01571045 33.81884766 2.03173828 C29.93134967 2.06788453 26.04386659 2.09088078 22.15625 2.10986328 C20.47230534 2.11993317 18.78837821 2.13358988 17.10449219 2.15087891 C14.68680499 2.17508426 12.26934857 2.18647296 9.8515625 2.1953125 C9.0963028 2.20563507 8.34104309 2.21595764 7.56289673 2.22659302 C5.7070602 2.22699318 3.8518072 2.12222716 2 2 C1.34 1.34 0.68 0.68 0 0 Z " fill="#FDFDFD" transform="translate(96,151)"/>
<path d="M0 0 C0.268125 0.61875 0.53625 1.2375 0.8125 1.875 C1.95556848 4.2995233 1.95556848 4.2995233 5 6 C4.01 6.495 4.01 6.495 3 7 C3.01160156 8.07121094 3.02320312 9.14242187 3.03515625 10.24609375 C3.04453299 11.64322743 3.05363331 13.04036299 3.0625 14.4375 C3.07087891 15.14455078 3.07925781 15.85160156 3.08789062 16.58007812 C3.09653588 18.38693559 3.05220011 20.19387603 3 22 C2.67 22.33 2.34 22.66 2 23 C1.92794489 24.68608966 1.91613932 26.37500659 1.9375 28.0625 C1.94652344 28.98160156 1.95554687 29.90070313 1.96484375 30.84765625 C1.97644531 31.55792969 1.98804687 32.26820313 2 33 C1.34 33 0.68 33 0 33 C-0.89645153 27.64263488 -1.15247777 22.48935977 -1.125 17.0625 C-1.12886719 16.30259766 -1.13273437 15.54269531 -1.13671875 14.75976562 C-1.12817323 9.75636172 -0.70999018 4.95302674 0 0 Z " fill="#E2E5E4" transform="translate(80,163)"/>
<path d="M0 0 C1.67542976 0.28604898 3.34385343 0.61781233 5 1 C4.95875 1.928125 4.9175 2.85625 4.875 3.8125 C4.72863661 7.15809719 4.72863661 7.15809719 7 10 C7 10.99 7 11.98 7 13 C3.61580001 12.74931852 2.6876329 11.69457439 0.1875 9.25 C-2 6 -2 6 -1.875 3.1875 C-1 1 -1 1 0 0 Z " fill="#F4F6F5" transform="translate(118,157)"/>
<path d="M0 0 C2.625 0.375 2.625 0.375 5 1 C5.04125 2.175625 5.0825 3.35125 5.125 4.5625 C5.71722936 9.67389492 8.42469929 12.50123478 12 16 C9.25086924 14.7414317 7.79082373 13.78531909 5.625 11.5625 C2.91051984 8.91265032 0.44806867 7.52356523 -3 6 C-2.42655063 3.13275314 -2.1385485 2.1385485 0 0 Z " fill="#F2F4F4" transform="translate(95,157)"/>
<path d="M0 0 C1.51833122 3.03666243 0.87743587 5.7091965 0.625 9.0625 C0.53476563 10.33222656 0.44453125 11.60195312 0.3515625 12.91015625 C0 16 0 16 -1 17 C-0.01 17 0.98 17 2 17 C2.33 18.32 2.66 19.64 3 21 C0.6875 21.6875 0.6875 21.6875 -2 22 C-3.8125 20.6875 -3.8125 20.6875 -5 19 C-5 18.34 -5 17.68 -5 17 C-4.34 17 -3.68 17 -3 17 C-3.03480469 15.94039062 -3.06960937 14.88078125 -3.10546875 13.7890625 C-3.13360399 12.40105748 -3.16090443 11.01303537 -3.1875 9.625 C-3.21263672 8.92632812 -3.23777344 8.22765625 -3.26367188 7.5078125 C-3.29296875 5.4765625 -3.29296875 5.4765625 -3 2 C-2.01 1.34 -1.02 0.68 0 0 Z " fill="#F4F6F6" transform="translate(90,202)"/>
<path d="M0 0 C0.88945312 0.04833984 1.77890625 0.09667969 2.6953125 0.14648438 C3.61570313 0.20255859 4.53609375 0.25863281 5.484375 0.31640625 C6.42023438 0.36861328 7.35609375 0.42082031 8.3203125 0.47460938 C10.62536387 0.6039745 12.92994789 0.73892659 15.234375 0.87890625 C15.234375 1.53890625 15.234375 2.19890625 15.234375 2.87890625 C6.984375 2.87890625 -1.265625 2.87890625 -9.765625 2.87890625 C-8.765625 0.87890625 -8.765625 0.87890625 -7.00097656 0.24633789 C-4.58111362 -0.15142245 -2.44750033 -0.14120194 0 0 Z " fill="#F2F2F2" transform="translate(211.765625,211.12109375)"/>
<path d="M0 0 C0.99 2.31 1.98 4.62 3 7 C0.69 6.67 -1.62 6.34 -4 6 C-4 5.34 -4 4.68 -4 4 C-6.475 3.01 -6.475 3.01 -9 2 C-5.5647952 -0.29013653 -4.014669 -0.17842973 0 0 Z " fill="#F6F6F7" transform="translate(134,179)"/>
<path d="M0 0 C1.33333333 0.33333333 2.66666667 0.66666667 4 1 C5.74886981 1.06624507 7.50002748 1.08552595 9.25 1.0625 C10.58804688 1.04896484 10.58804688 1.04896484 11.953125 1.03515625 C12.62859375 1.02355469 13.3040625 1.01195312 14 1 C14.33 1.99 14.66 2.98 15 4 C13.22925083 4.02705729 11.45838289 4.04642195 9.6875 4.0625 C8.70136719 4.07410156 7.71523437 4.08570313 6.69921875 4.09765625 C4 4 4 4 1 3 C1.33 4.32 1.66 5.64 2 7 C1.01 6.67 0.02 6.34 -1 6 C-1.042721 4.33388095 -1.04063832 2.66617115 -1 1 C-0.67 0.67 -0.34 0.34 0 0 Z " fill="#E9EDED" transform="translate(87,172)"/>
<path d="M0 0 C0.99 0.33 1.98 0.66 3 1 C2.67 1.99 2.34 2.98 2 4 C3.65 2.68 5.3 1.36 7 0 C5.95125002 2.62187494 5.35068687 3.79371361 2.875 5.25 C2.25625 5.4975 1.6375 5.745 1 6 C1 6.66 1 7.32 1 8 C-0.65 7.67 -2.3 7.34 -4 7 C-2.92598892 4.08482708 -2.22189824 2.22189824 0 0 Z " fill="#F6F9FB" transform="translate(88,184)"/>
<path d="M0 0 C-0.625 2.375 -0.625 2.375 -2 5 C-5.125 6.3125 -5.125 6.3125 -8 7 C-8.66 5.68 -9.32 4.36 -10 3 C-9.01 3 -8.02 3 -7 3 C-7 2.34 -7 1.68 -7 1 C-4.50935112 0.31292445 -2.62113708 0 0 0 Z " fill="#E7E7E6" transform="translate(146,215)"/>
<path d="M0 0 C0.66 0.33 1.32 0.66 2 1 C1.1875 2.9375 1.1875 2.9375 0 5 C-0.99 5.33 -1.98 5.66 -3 6 C-2.01 6.99 -1.02 7.98 0 9 C-0.33 9.99 -0.66 10.98 -1 12 C-3.5625 13.1875 -3.5625 13.1875 -6 14 C-5.66290194 7.48277089 -4.55774263 4.67460782 0 0 Z " fill="#F2F7F6" transform="translate(93,188)"/>
<path d="M0 0 C-2.91765 1.9451 -4.62537285 2.45276317 -8 3 C-8 2.34 -8 1.68 -8 1 C-13.61 1 -19.22 1 -25 1 C-25 0.67 -25 0.34 -25 0 C-16.50791416 -0.73598077 -8.46904477 -1.29526567 0 0 Z " fill="#E5E5E5" transform="translate(138,234)"/>
<path d="M0 0 C1.65 1.32 3.3 2.64 5 4 C3.50902342 7.7952131 1.24299151 9.61042731 -2 12 C-2.33 11.34 -2.66 10.68 -3 10 C-2.34 9.67 -1.68 9.34 -1 9 C-0.53348793 6.87423218 -0.53348793 6.87423218 -0.375 4.4375 C-0.30023438 3.61121094 -0.22546875 2.78492188 -0.1484375 1.93359375 C-0.09945313 1.29550781 -0.05046875 0.65742188 0 0 Z " fill="#EFEFEF" transform="translate(323,212)"/>
<path d="M0 0 C0.66 0 1.32 0 2 0 C2 0.66 2 1.32 2 2 C4.475 2.99 4.475 2.99 7 4 C5.68 5.32 4.36 6.64 3 8 C1.35 6.68 -0.3 5.36 -2 4 C-1.34 2.68 -0.68 1.36 0 0 Z " fill="#F7F7F7" transform="translate(131,166)"/>
<path d="M0 0 C1.4540625 0.0309375 1.4540625 0.0309375 2.9375 0.0625 C1.9475 0.5575 1.9475 0.5575 0.9375 1.0625 C0.9375 1.7225 0.9375 2.3825 0.9375 3.0625 C-1.02177063 4.7768618 -3.02130212 6.44655168 -5.0625 8.0625 C-5.7225 7.7325 -6.3825 7.4025 -7.0625 7.0625 C-3.64276316 0.07434211 -3.64276316 0.07434211 0 0 Z " fill="#E9EBED" transform="translate(95.0625,180.9375)"/>
<path d="M0 0 C-1 1 -1 1 -3.50390625 1.09765625 C-5.01791016 1.08025391 -5.01791016 1.08025391 -6.5625 1.0625 C-7.57441406 1.05347656 -8.58632812 1.04445312 -9.62890625 1.03515625 C-10.41136719 1.02355469 -11.19382812 1.01195312 -12 1 C-12.33 0.34 -12.66 -0.32 -13 -1 C-11.58566794 -1.2236337 -10.16832382 -1.42826476 -8.75 -1.625 C-7.56664063 -1.79902344 -7.56664063 -1.79902344 -6.359375 -1.9765625 C-3.67847541 -2.00319395 -2.27305911 -1.36592084 0 0 Z " fill="#F5F5F7" transform="translate(97,167)"/>
<path d="M0 0 C0.99 1.32 1.98 2.64 3 4 C2.34 4 1.68 4 1 4 C1 4.99 1 5.98 1 7 C0.34 7 -0.32 7 -1 7 C-1 6.01 -1 5.02 -1 4 C-1.99 4 -2.98 4 -4 4 C-4 3.34 -4 2.68 -4 2 C-2.68 1.34 -1.36 0.68 0 0 Z " fill="#E4E4E4" transform="translate(154,190)"/>
<path d="M0 0 C0.99 0 1.98 0 3 0 C2.9278125 0.59167969 2.855625 1.18335938 2.78125 1.79296875 C2.30089977 5.88261722 1.86689849 9.8738531 2 14 C1.34 14 0.68 14 0 14 C0 9.38 0 4.76 0 0 Z " fill="#DFDFE0" transform="translate(80,182)"/>
<path d="M0 0 C2.475 0.495 2.475 0.495 5 1 C4.34 3.31 3.68 5.62 3 8 C2.34 8 1.68 8 1 8 C0.67 5.36 0.34 2.72 0 0 Z " fill="#F9FCFC" transform="translate(107,208)"/>
<path d="M0 0 C0 0.99 0 1.98 0 3 C-2.64 2.67 -5.28 2.34 -8 2 C-4.77208445 -0.1519437 -3.71599191 -0.20086443 0 0 Z " fill="#EAECEB" transform="translate(145,204)"/>
<path d="M0 0 C-0.25561323 2.3431213 -0.59270772 4.67843403 -1 7 C-1.99 7.495 -1.99 7.495 -3 8 C-3 6.35 -3 4.7 -3 3 C-3.99 2.67 -4.98 2.34 -6 2 C-2.25 0 -2.25 0 0 0 Z " fill="#E8E8E8" transform="translate(153,201)"/>
<path d="M0 0 C1.32 0 2.64 0 4 0 C4.33 1.32 4.66 2.64 5 4 C4.01 4 3.02 4 2 4 C2 3.34 2 2.68 2 2 C0.68 2.33 -0.64 2.66 -2 3 C-1.34 2.01 -0.68 1.02 0 0 Z " fill="#ECEFEF" transform="translate(100,193)"/>
</svg>
