<svg width="6165" height="2258" viewBox="0 0 6165 2258" fill="none" xmlns="http://www.w3.org/2000/svg">
<path d="M2670.97 827.416H2596.59L2584.29 863H2544.96L2612.11 675.983H2655.72L2722.88 863H2683.28L2670.97 827.416ZM2660.81 797.45L2633.78 719.326L2606.76 797.45H2660.81ZM2831.45 865.408C2819.33 865.408 2808.44 863.268 2798.81 858.987C2789.18 854.528 2781.51 848.552 2775.8 841.061C2770.27 833.57 2767.24 825.275 2766.71 816.179H2804.43C2805.15 821.887 2807.91 826.613 2812.73 830.359C2817.72 834.105 2823.87 835.977 2831.19 835.977C2838.32 835.977 2843.85 834.551 2847.77 831.697C2851.88 828.843 2853.93 825.186 2853.93 820.727C2853.93 815.911 2851.43 812.344 2846.44 810.025C2841.62 807.528 2833.86 804.852 2823.16 801.999C2812.1 799.323 2803 796.558 2795.87 793.705C2788.91 790.851 2782.85 786.481 2777.68 780.595C2772.68 774.709 2770.19 766.771 2770.19 756.783C2770.19 748.578 2772.5 741.086 2777.14 734.309C2781.96 727.531 2788.74 722.18 2797.48 718.256C2806.39 714.331 2816.83 712.369 2828.78 712.369C2846.44 712.369 2860.53 716.829 2871.05 725.747C2881.58 734.487 2887.37 746.348 2888.44 761.331H2852.59C2852.06 755.445 2849.56 750.807 2845.1 747.418C2840.82 743.851 2835.02 742.067 2827.71 742.067C2820.93 742.067 2815.67 743.316 2811.92 745.813C2808.36 748.31 2806.57 751.788 2806.57 756.248C2806.57 761.242 2809.07 765.077 2814.06 767.752C2819.06 770.249 2826.82 772.836 2837.34 775.511C2848.04 778.187 2856.87 780.951 2863.83 783.805C2870.78 786.659 2876.76 791.118 2881.75 797.183C2886.93 803.069 2889.6 810.917 2889.78 820.727C2889.78 829.289 2887.37 836.958 2882.56 843.736C2877.92 850.514 2871.14 855.865 2862.22 859.789C2853.48 863.535 2843.23 865.408 2831.45 865.408ZM3004 865.408C2991.87 865.408 2980.99 863.268 2971.36 858.987C2961.73 854.528 2954.06 848.552 2948.35 841.061C2942.82 833.57 2939.79 825.275 2939.26 816.179H2976.98C2977.69 821.887 2980.46 826.613 2985.27 830.359C2990.27 834.105 2996.42 835.977 3003.74 835.977C3010.87 835.977 3016.4 834.551 3020.32 831.697C3024.43 828.843 3026.48 825.186 3026.48 820.727C3026.48 815.911 3023.98 812.344 3018.99 810.025C3014.17 807.528 3006.41 804.852 2995.71 801.999C2984.65 799.323 2975.55 796.558 2968.42 793.705C2961.46 790.851 2955.4 786.481 2950.23 780.595C2945.23 774.709 2942.73 766.771 2942.73 756.783C2942.73 748.578 2945.05 741.086 2949.69 734.309C2954.51 727.531 2961.28 722.18 2970.02 718.256C2978.94 714.331 2989.38 712.369 3001.33 712.369C3018.99 712.369 3033.08 716.829 3043.6 725.747C3054.12 734.487 3059.92 746.348 3060.99 761.331H3025.14C3024.6 755.445 3022.11 750.807 3017.65 747.418C3013.37 743.851 3007.57 742.067 3000.26 742.067C2993.48 742.067 2988.22 743.316 2984.47 745.813C2980.9 748.31 2979.12 751.788 2979.12 756.248C2979.12 761.242 2981.62 765.077 2986.61 767.752C2991.61 770.249 2999.37 772.836 3009.89 775.511C3020.59 778.187 3029.42 780.951 3036.38 783.805C3043.33 786.659 3049.31 791.118 3054.3 797.183C3059.47 803.069 3062.15 810.917 3062.33 820.727C3062.33 829.289 3059.92 836.958 3055.1 843.736C3050.47 850.514 3043.69 855.865 3034.77 859.789C3026.03 863.535 3015.78 865.408 3004 865.408ZM3185.65 865.408C3171.38 865.408 3158.54 862.287 3147.12 856.044C3135.71 849.623 3126.7 840.615 3120.1 829.021C3113.68 817.427 3110.47 804.05 3110.47 788.889C3110.47 773.728 3113.77 760.35 3120.37 748.756C3127.14 737.162 3136.33 728.244 3147.92 722.001C3159.52 715.58 3172.45 712.369 3186.72 712.369C3200.99 712.369 3213.92 715.58 3225.51 722.001C3237.11 728.244 3246.2 737.162 3252.8 748.756C3259.58 760.35 3262.97 773.728 3262.97 788.889C3262.97 804.05 3259.49 817.427 3252.54 829.021C3245.76 840.615 3236.48 849.623 3224.71 856.044C3213.12 862.287 3200.1 865.408 3185.65 865.408ZM3185.65 832.767C3192.43 832.767 3198.76 831.162 3204.64 827.951C3210.71 824.562 3215.52 819.568 3219.09 812.968C3222.66 806.369 3224.44 798.342 3224.44 788.889C3224.44 774.798 3220.7 764.007 3213.21 756.515C3205.89 748.845 3196.89 745.011 3186.18 745.011C3175.48 745.011 3166.47 748.845 3159.16 756.515C3152.03 764.007 3148.46 774.798 3148.46 788.889C3148.46 802.98 3151.94 813.86 3158.89 821.53C3166.03 829.021 3174.95 832.767 3185.65 832.767ZM3307.57 788.889C3307.57 773.549 3310.69 760.172 3316.93 748.756C3323.18 737.162 3331.83 728.244 3342.89 722.001C3353.94 715.58 3366.61 712.369 3380.88 712.369C3399.25 712.369 3414.41 717.007 3426.36 726.282C3438.49 735.379 3446.61 748.221 3450.71 764.809H3410.31C3408.17 758.388 3404.51 753.394 3399.34 749.826C3394.34 746.081 3388.1 744.208 3380.61 744.208C3369.91 744.208 3361.44 748.132 3355.19 755.98C3348.95 763.65 3345.83 774.619 3345.83 788.889C3345.83 802.98 3348.95 813.949 3355.19 821.797C3361.44 829.467 3369.91 833.302 3380.61 833.302C3395.77 833.302 3405.67 826.524 3410.31 812.968H3450.71C3446.61 829.021 3438.49 841.774 3426.36 851.228C3414.23 860.681 3399.07 865.408 3380.88 865.408C3366.61 865.408 3353.94 862.287 3342.89 856.044C3331.83 849.623 3323.18 840.704 3316.93 829.289C3310.69 817.695 3307.57 804.228 3307.57 788.889ZM3523.9 697.119C3517.3 697.119 3511.77 695.068 3507.31 690.965C3503.03 686.685 3500.89 681.423 3500.89 675.18C3500.89 668.937 3503.03 663.765 3507.31 659.662C3511.77 655.381 3517.3 653.241 3523.9 653.241C3530.5 653.241 3535.94 655.381 3540.22 659.662C3544.68 663.765 3546.91 668.937 3546.91 675.18C3546.91 681.423 3544.68 686.685 3540.22 690.965C3535.94 695.068 3530.5 697.119 3523.9 697.119ZM3542.36 714.777V863H3504.9V714.777H3542.36ZM3596.49 788.354C3596.49 773.371 3599.44 760.082 3605.32 748.489C3611.39 736.895 3619.5 727.976 3629.67 721.734C3640.01 715.491 3651.52 712.369 3664.18 712.369C3675.24 712.369 3684.87 714.599 3693.08 719.058C3701.46 723.517 3708.15 729.136 3713.14 735.914V714.777H3750.87V863H3713.14V841.328C3708.33 848.285 3701.64 854.082 3693.08 858.719C3684.69 863.178 3674.97 865.408 3663.91 865.408C3651.43 865.408 3640.01 862.197 3629.67 855.776C3619.5 849.355 3611.39 840.347 3605.32 828.754C3599.44 816.981 3596.49 803.515 3596.49 788.354ZM3713.14 788.889C3713.14 779.792 3711.36 772.033 3707.79 765.612C3704.23 759.012 3699.41 754.018 3693.35 750.629C3687.28 747.062 3680.77 745.278 3673.81 745.278C3666.86 745.278 3660.44 746.973 3654.55 750.361C3648.66 753.75 3643.85 758.745 3640.1 765.344C3636.54 771.765 3634.75 779.435 3634.75 788.354C3634.75 797.272 3636.54 805.12 3640.1 811.898C3643.85 818.498 3648.66 823.581 3654.55 827.148C3660.61 830.716 3667.04 832.499 3673.81 832.499C3680.77 832.499 3687.28 830.805 3693.35 827.416C3699.41 823.849 3704.23 818.854 3707.79 812.433C3711.36 805.834 3713.14 797.985 3713.14 788.889ZM3857.82 745.546V817.249C3857.82 822.243 3858.98 825.9 3861.3 828.219C3863.79 830.359 3867.89 831.429 3873.6 831.429H3890.99V863H3867.45C3835.88 863 3820.09 847.66 3820.09 816.981V745.546H3802.43V714.777H3820.09V678.123H3857.82V714.777H3890.99V745.546H3857.82ZM3963.69 697.119C3957.09 697.119 3951.56 695.068 3947.1 690.965C3942.82 686.685 3940.68 681.423 3940.68 675.18C3940.68 668.937 3942.82 663.765 3947.1 659.662C3951.56 655.381 3957.09 653.241 3963.69 653.241C3970.29 653.241 3975.73 655.381 3980.01 659.662C3984.47 663.765 3986.69 668.937 3986.69 675.18C3986.69 681.423 3984.47 686.685 3980.01 690.965C3975.73 695.068 3970.29 697.119 3963.69 697.119ZM3982.15 714.777V863H3944.69V714.777H3982.15ZM4111.73 865.408C4097.46 865.408 4084.61 862.287 4073.2 856.044C4061.78 849.623 4052.78 840.615 4046.18 829.021C4039.76 817.427 4036.54 804.05 4036.54 788.889C4036.54 773.728 4039.84 760.35 4046.44 748.756C4053.22 737.162 4062.41 728.244 4074 722.001C4085.6 715.58 4098.53 712.369 4112.8 712.369C4127.07 712.369 4140 715.58 4151.59 722.001C4163.18 728.244 4172.28 737.162 4178.88 748.756C4185.66 760.35 4189.05 773.728 4189.05 788.889C4189.05 804.05 4185.57 817.427 4178.61 829.021C4171.84 840.615 4162.56 849.623 4150.79 856.044C4139.19 862.287 4126.17 865.408 4111.73 865.408ZM4111.73 832.767C4118.5 832.767 4124.84 831.162 4130.72 827.951C4136.79 824.562 4141.6 819.568 4145.17 812.968C4148.74 806.369 4150.52 798.342 4150.52 788.889C4150.52 774.798 4146.78 764.007 4139.28 756.515C4131.97 748.845 4122.96 745.011 4112.26 745.011C4101.56 745.011 4092.55 748.845 4085.24 756.515C4078.1 764.007 4074.54 774.798 4074.54 788.889C4074.54 802.98 4078.01 813.86 4084.97 821.53C4092.11 829.021 4101.02 832.767 4111.73 832.767ZM4325.42 712.637C4343.08 712.637 4357.34 718.256 4368.22 729.493C4379.11 740.551 4384.55 756.069 4384.55 776.046V863H4347.09V781.13C4347.09 769.358 4344.15 760.35 4338.26 754.107C4332.37 747.686 4324.35 744.475 4314.18 744.475C4303.83 744.475 4295.63 747.686 4289.57 754.107C4283.68 760.35 4280.74 769.358 4280.74 781.13V863H4243.28V714.777H4280.74V733.238C4285.73 726.817 4292.06 721.823 4299.73 718.256C4307.58 714.51 4316.14 712.637 4325.42 712.637ZM4605.39 745.546H4579.43V863H4541.44V745.546H4524.58V714.777H4541.44V707.286C4541.44 689.093 4546.61 675.715 4556.96 667.153C4567.3 658.592 4582.91 654.579 4603.78 655.114V686.685C4594.68 686.506 4588.35 688.022 4584.78 691.233C4581.22 694.444 4579.43 700.24 4579.43 708.624V714.777H4605.39V745.546ZM4722.23 865.408C4707.96 865.408 4695.12 862.287 4683.7 856.044C4672.29 849.623 4663.28 840.615 4656.68 829.021C4650.26 817.427 4647.05 804.05 4647.05 788.889C4647.05 773.728 4650.35 760.35 4656.95 748.756C4663.73 737.162 4672.91 728.244 4684.51 722.001C4696.1 715.58 4709.03 712.369 4723.3 712.369C4737.57 712.369 4750.5 715.58 4762.1 722.001C4773.69 728.244 4782.79 737.162 4789.39 748.756C4796.16 760.35 4799.55 773.728 4799.55 788.889C4799.55 804.05 4796.07 817.427 4789.12 829.021C4782.34 840.615 4773.07 849.623 4761.29 856.044C4749.7 862.287 4736.68 865.408 4722.23 865.408ZM4722.23 832.767C4729.01 832.767 4735.34 831.162 4741.23 827.951C4747.29 824.562 4752.11 819.568 4755.67 812.968C4759.24 806.369 4761.03 798.342 4761.03 788.889C4761.03 774.798 4757.28 764.007 4749.79 756.515C4742.48 748.845 4733.47 745.011 4722.77 745.011C4712.06 745.011 4703.06 748.845 4695.74 756.515C4688.61 764.007 4685.04 774.798 4685.04 788.889C4685.04 802.98 4688.52 813.86 4695.48 821.53C4702.61 829.021 4711.53 832.767 4722.23 832.767ZM4891.24 737.787C4896.06 729.939 4902.3 723.785 4909.97 719.326C4917.82 714.867 4926.74 712.637 4936.72 712.637V751.967H4926.83C4915.05 751.967 4906.13 754.731 4900.07 760.261C4894.18 765.79 4891.24 775.422 4891.24 789.156V863H4853.78V714.777H4891.24V737.787ZM2547.36 1067.36C2547.36 1048.99 2551.47 1032.58 2559.67 1018.13C2568.05 1003.5 2579.38 992.176 2593.65 984.15C2608.1 975.945 2624.24 971.842 2642.08 971.842C2662.95 971.842 2681.23 977.193 2696.92 987.895C2712.62 998.597 2723.59 1013.4 2729.83 1032.31H2686.76C2682.48 1023.39 2676.41 1016.7 2668.56 1012.24C2660.89 1007.78 2651.98 1005.55 2641.81 1005.55C2630.93 1005.55 2621.21 1008.14 2612.65 1013.31C2604.26 1018.31 2597.66 1025.44 2592.85 1034.72C2588.21 1043.99 2585.89 1054.87 2585.89 1067.36C2585.89 1079.66 2588.21 1090.55 2592.85 1100C2597.66 1109.27 2604.26 1116.5 2612.65 1121.67C2621.21 1126.66 2630.93 1129.16 2641.81 1129.16C2651.98 1129.16 2660.89 1126.93 2668.56 1122.47C2676.41 1117.84 2682.48 1111.06 2686.76 1102.14H2729.83C2723.59 1121.22 2712.62 1136.12 2696.92 1146.82C2681.41 1157.34 2663.12 1162.61 2642.08 1162.61C2624.24 1162.61 2608.1 1158.59 2593.65 1150.57C2579.38 1142.36 2568.05 1131.03 2559.67 1116.59C2551.47 1102.14 2547.36 1085.73 2547.36 1067.36ZM2854.4 1163.41C2840.13 1163.41 2827.29 1160.29 2815.87 1154.04C2804.46 1147.62 2795.45 1138.61 2788.85 1127.02C2782.43 1115.43 2779.22 1102.05 2779.22 1086.89C2779.22 1071.73 2782.52 1058.35 2789.12 1046.76C2795.89 1035.16 2805.08 1026.24 2816.67 1020C2828.27 1013.58 2841.2 1010.37 2855.47 1010.37C2869.74 1010.37 2882.67 1013.58 2894.26 1020C2905.86 1026.24 2914.95 1035.16 2921.55 1046.76C2928.33 1058.35 2931.72 1071.73 2931.72 1086.89C2931.72 1102.05 2928.24 1115.43 2921.29 1127.02C2914.51 1138.61 2905.23 1147.62 2893.46 1154.04C2881.87 1160.29 2868.85 1163.41 2854.4 1163.41ZM2854.4 1130.77C2861.18 1130.77 2867.51 1129.16 2873.39 1125.95C2879.46 1122.56 2884.28 1117.57 2887.84 1110.97C2891.41 1104.37 2893.19 1096.34 2893.19 1086.89C2893.19 1072.8 2889.45 1062.01 2881.96 1054.52C2874.64 1046.85 2865.64 1043.01 2854.93 1043.01C2844.23 1043.01 2835.22 1046.85 2827.91 1054.52C2820.78 1062.01 2817.21 1072.8 2817.21 1086.89C2817.21 1100.98 2820.69 1111.86 2827.64 1119.53C2834.78 1127.02 2843.7 1130.77 2854.4 1130.77ZM3170.03 1010.64C3188.22 1010.64 3202.85 1016.26 3213.9 1027.49C3225.14 1038.55 3230.76 1054.07 3230.76 1074.05V1161H3193.3V1079.13C3193.3 1067.54 3190.36 1058.71 3184.47 1052.64C3178.59 1046.4 3170.56 1043.28 3160.39 1043.28C3150.23 1043.28 3142.11 1046.4 3136.05 1052.64C3130.16 1058.71 3127.22 1067.54 3127.22 1079.13V1161H3089.76V1079.13C3089.76 1067.54 3086.82 1058.71 3080.93 1052.64C3075.05 1046.4 3067.02 1043.28 3056.85 1043.28C3046.51 1043.28 3038.3 1046.4 3032.24 1052.64C3026.35 1058.71 3023.41 1067.54 3023.41 1079.13V1161H2985.95V1012.78H3023.41V1030.7C3028.22 1024.46 3034.38 1019.56 3041.87 1015.99C3049.54 1012.42 3057.92 1010.64 3067.02 1010.64C3078.61 1010.64 3088.96 1013.13 3098.06 1018.13C3107.15 1022.94 3114.2 1029.9 3119.19 1039C3124.01 1030.44 3130.96 1023.57 3140.06 1018.4C3149.34 1013.22 3159.32 1010.64 3170.03 1010.64ZM3330.52 1034.18C3335.33 1027.4 3341.93 1021.78 3350.31 1017.33C3358.88 1012.69 3368.6 1010.37 3379.48 1010.37C3392.14 1010.37 3403.56 1013.49 3413.72 1019.73C3424.07 1025.98 3432.19 1034.89 3438.07 1046.49C3444.14 1057.9 3447.17 1071.19 3447.17 1086.35C3447.17 1101.51 3444.14 1114.98 3438.07 1126.75C3432.19 1138.35 3424.07 1147.35 3413.72 1153.78C3403.56 1160.2 3392.14 1163.41 3379.48 1163.41C3368.6 1163.41 3358.97 1161.18 3350.58 1156.72C3342.38 1152.26 3335.69 1146.64 3330.52 1139.86V1231.63H3293.06V1012.78H3330.52V1034.18ZM3408.91 1086.35C3408.91 1077.44 3407.04 1069.77 3403.29 1063.34C3399.72 1056.74 3394.91 1051.75 3388.84 1048.36C3382.96 1044.97 3376.53 1043.28 3369.58 1043.28C3362.8 1043.28 3356.38 1045.06 3350.31 1048.63C3344.43 1052.02 3339.61 1057.01 3335.87 1063.61C3332.3 1070.21 3330.52 1077.97 3330.52 1086.89C3330.52 1095.81 3332.3 1103.57 3335.87 1110.17C3339.61 1116.77 3344.43 1121.85 3350.31 1125.42C3356.38 1128.8 3362.8 1130.5 3369.58 1130.5C3376.53 1130.5 3382.96 1128.72 3388.84 1125.15C3394.91 1121.58 3399.72 1116.5 3403.29 1109.9C3407.04 1103.3 3408.91 1095.45 3408.91 1086.35ZM3641.07 1012.78V1161H3603.35V1142.27C3598.53 1148.69 3592.2 1153.78 3584.35 1157.52C3576.68 1161.09 3568.3 1162.87 3559.2 1162.87C3547.61 1162.87 3537.35 1160.46 3528.43 1155.65C3519.51 1150.65 3512.47 1143.43 3507.3 1133.98C3502.3 1124.35 3499.8 1112.93 3499.8 1099.73V1012.78H3537.26V1094.38C3537.26 1106.15 3540.2 1115.25 3546.09 1121.67C3551.98 1127.91 3560 1131.03 3570.17 1131.03C3580.51 1131.03 3588.63 1127.91 3594.52 1121.67C3600.4 1115.25 3603.35 1106.15 3603.35 1094.38V1012.78H3641.07ZM3748.39 1043.55V1115.25C3748.39 1120.24 3749.55 1123.9 3751.87 1126.22C3754.37 1128.36 3758.47 1129.43 3764.18 1129.43H3781.57V1161H3758.03C3726.45 1161 3710.67 1145.66 3710.67 1114.98V1043.55H3693.01V1012.78H3710.67V976.123H3748.39V1012.78H3781.57V1043.55H3748.39ZM3854.26 995.119C3847.66 995.119 3842.13 993.068 3837.67 988.965C3833.39 984.685 3831.25 979.423 3831.25 973.18C3831.25 966.937 3833.39 961.765 3837.67 957.662C3842.13 953.381 3847.66 951.241 3854.26 951.241C3860.86 951.241 3866.3 953.381 3870.58 957.662C3875.04 961.765 3877.27 966.937 3877.27 973.18C3877.27 979.423 3875.04 984.685 3870.58 988.965C3866.3 993.068 3860.86 995.119 3854.26 995.119ZM3872.72 1012.78V1161H3835.27V1012.78H3872.72ZM4018.62 1010.64C4036.28 1010.64 4050.55 1016.26 4061.43 1027.49C4072.31 1038.55 4077.75 1054.07 4077.75 1074.05V1161H4040.29V1079.13C4040.29 1067.36 4037.35 1058.35 4031.47 1052.11C4025.58 1045.69 4017.55 1042.48 4007.39 1042.48C3997.04 1042.48 3988.84 1045.69 3982.77 1052.11C3976.89 1058.35 3973.94 1067.36 3973.94 1079.13V1161H3936.49V1012.78H3973.94V1031.24C3978.94 1024.82 3985.27 1019.82 3992.94 1016.26C4000.79 1012.51 4009.35 1010.64 4018.62 1010.64ZM4198.18 1010.37C4209.24 1010.37 4218.96 1012.6 4227.35 1017.06C4235.73 1021.34 4242.33 1026.96 4247.15 1033.91V1012.78H4284.87V1162.07C4284.87 1175.8 4282.11 1188.02 4276.58 1198.72C4271.05 1209.6 4262.75 1218.17 4251.69 1224.41C4240.64 1230.83 4227.26 1234.04 4211.56 1234.04C4190.51 1234.04 4173.21 1229.14 4159.66 1219.33C4146.28 1209.52 4138.7 1196.14 4136.92 1179.19H4174.11C4176.07 1185.97 4180.26 1191.32 4186.68 1195.25C4193.28 1199.35 4201.22 1201.4 4210.49 1201.4C4221.37 1201.4 4230.2 1198.1 4236.98 1191.5C4243.76 1185.08 4247.15 1175.27 4247.15 1162.07V1139.06C4242.33 1146.02 4235.64 1151.81 4227.08 1156.45C4218.7 1161.09 4209.06 1163.41 4198.18 1163.41C4185.7 1163.41 4174.28 1160.2 4163.94 1153.78C4153.59 1147.35 4145.39 1138.35 4139.32 1126.75C4133.44 1114.98 4130.49 1101.51 4130.49 1086.35C4130.49 1071.37 4133.44 1058.08 4139.32 1046.49C4145.39 1034.89 4153.5 1025.98 4163.67 1019.73C4174.02 1013.49 4185.52 1010.37 4198.18 1010.37ZM4247.15 1086.89C4247.15 1077.79 4245.36 1070.03 4241.8 1063.61C4238.23 1057.01 4233.41 1052.02 4227.35 1048.63C4221.28 1045.06 4214.77 1043.28 4207.82 1043.28C4200.86 1043.28 4194.44 1044.97 4188.55 1048.36C4182.67 1051.75 4177.85 1056.74 4174.11 1063.34C4170.54 1069.77 4168.75 1077.44 4168.75 1086.35C4168.75 1095.27 4170.54 1103.12 4174.11 1109.9C4177.85 1116.5 4182.67 1121.58 4188.55 1125.15C4194.62 1128.72 4201.04 1130.5 4207.82 1130.5C4214.77 1130.5 4221.28 1128.8 4227.35 1125.42C4233.41 1121.85 4238.23 1116.85 4241.8 1110.43C4245.36 1103.83 4247.15 1095.99 4247.15 1086.89ZM4642.32 974.25V1161H4604.86V1039.53L4554.83 1161H4526.47L4476.17 1039.53V1161H4438.72V974.25H4481.26L4540.65 1113.11L4600.05 974.25H4642.32ZM4696.48 1086.35C4696.48 1071.37 4699.42 1058.08 4705.31 1046.49C4711.37 1034.89 4719.49 1025.98 4729.65 1019.73C4740 1013.49 4751.5 1010.37 4764.17 1010.37C4775.23 1010.37 4784.86 1012.6 4793.06 1017.06C4801.45 1021.52 4808.13 1027.14 4813.13 1033.91V1012.78H4850.85V1161H4813.13V1139.33C4808.31 1146.28 4801.62 1152.08 4793.06 1156.72C4784.68 1161.18 4774.96 1163.41 4763.9 1163.41C4751.41 1163.41 4740 1160.2 4729.65 1153.78C4719.49 1147.35 4711.37 1138.35 4705.31 1126.75C4699.42 1114.98 4696.48 1101.51 4696.48 1086.35ZM4813.13 1086.89C4813.13 1077.79 4811.35 1070.03 4807.78 1063.61C4804.21 1057.01 4799.39 1052.02 4793.33 1048.63C4787.27 1045.06 4780.76 1043.28 4773.8 1043.28C4766.84 1043.28 4760.42 1044.97 4754.54 1048.36C4748.65 1051.75 4743.83 1056.74 4740.09 1063.34C4736.52 1069.77 4734.74 1077.44 4734.74 1086.35C4734.74 1095.27 4736.52 1103.12 4740.09 1109.9C4743.83 1116.5 4748.65 1121.58 4754.54 1125.15C4760.6 1128.72 4767.02 1130.5 4773.8 1130.5C4780.76 1130.5 4787.27 1128.8 4793.33 1125.42C4799.39 1121.85 4804.21 1116.85 4807.78 1110.43C4811.35 1103.83 4813.13 1095.99 4813.13 1086.89ZM4904.56 1086.89C4904.56 1071.55 4907.68 1058.17 4913.92 1046.76C4920.17 1035.16 4928.82 1026.24 4939.88 1020C4950.94 1013.58 4963.6 1010.37 4977.87 1010.37C4996.24 1010.37 5011.4 1015.01 5023.35 1024.28C5035.48 1033.38 5043.6 1046.22 5047.7 1062.81H5007.3C5005.16 1056.39 5001.5 1051.39 4996.33 1047.83C4991.34 1044.08 4985.09 1042.21 4977.6 1042.21C4966.9 1042.21 4958.43 1046.13 4952.18 1053.98C4945.94 1061.65 4942.82 1072.62 4942.82 1086.89C4942.82 1100.98 4945.94 1111.95 4952.18 1119.8C4958.43 1127.47 4966.9 1131.3 4977.6 1131.3C4992.76 1131.3 5002.66 1124.52 5007.3 1110.97H5047.7C5043.6 1127.02 5035.48 1139.77 5023.35 1149.23C5011.22 1158.68 4996.06 1163.41 4977.87 1163.41C4963.6 1163.41 4950.94 1160.29 4939.88 1154.04C4928.82 1147.62 4920.17 1138.7 4913.92 1127.29C4907.68 1115.69 4904.56 1102.23 4904.56 1086.89ZM5185.37 1010.64C5196.61 1010.64 5206.6 1013.13 5215.34 1018.13C5224.08 1022.94 5230.85 1030.17 5235.67 1039.8C5240.66 1049.25 5243.16 1060.67 5243.16 1074.05V1161H5205.7V1079.13C5205.7 1067.36 5202.76 1058.35 5196.87 1052.11C5190.99 1045.69 5182.96 1042.48 5172.8 1042.48C5162.45 1042.48 5154.25 1045.69 5148.18 1052.11C5142.29 1058.35 5139.35 1067.36 5139.35 1079.13V1161H5101.89V963.013H5139.35V1031.24C5144.17 1024.82 5150.59 1019.82 5158.62 1016.26C5166.64 1012.51 5175.56 1010.64 5185.37 1010.64ZM5324.53 995.119C5317.93 995.119 5312.4 993.068 5307.94 988.965C5303.66 984.685 5301.52 979.423 5301.52 973.18C5301.52 966.937 5303.66 961.765 5307.94 957.662C5312.4 953.381 5317.93 951.241 5324.53 951.241C5331.13 951.241 5336.57 953.381 5340.85 957.662C5345.31 961.765 5347.54 966.937 5347.54 973.18C5347.54 979.423 5345.31 984.685 5340.85 988.965C5336.57 993.068 5331.13 995.119 5324.53 995.119ZM5342.99 1012.78V1161H5305.54V1012.78H5342.99ZM5488.89 1010.64C5506.55 1010.64 5520.82 1016.26 5531.7 1027.49C5542.58 1038.55 5548.02 1054.07 5548.02 1074.05V1161H5510.56V1079.13C5510.56 1067.36 5507.62 1058.35 5501.74 1052.11C5495.85 1045.69 5487.82 1042.48 5477.66 1042.48C5467.31 1042.48 5459.11 1045.69 5453.04 1052.11C5447.16 1058.35 5444.21 1067.36 5444.21 1079.13V1161H5406.76V1012.78H5444.21V1031.24C5449.21 1024.82 5455.54 1019.82 5463.21 1016.26C5471.06 1012.51 5479.62 1010.64 5488.89 1010.64ZM5748.18 1083.68C5748.18 1089.03 5747.83 1093.84 5747.11 1098.13H5638.76C5639.65 1108.83 5643.39 1117.21 5649.99 1123.28C5656.59 1129.34 5664.71 1132.37 5674.34 1132.37C5688.25 1132.37 5698.15 1126.4 5704.04 1114.45H5744.44C5740.16 1128.72 5731.95 1140.49 5719.82 1149.76C5707.7 1158.86 5692.8 1163.41 5675.14 1163.41C5660.87 1163.41 5648.03 1160.29 5636.62 1154.04C5625.38 1147.62 5616.55 1138.61 5610.13 1127.02C5603.89 1115.43 5600.76 1102.05 5600.76 1086.89C5600.76 1071.55 5603.89 1058.08 5610.13 1046.49C5616.37 1034.89 5625.11 1025.98 5636.35 1019.73C5647.59 1013.49 5660.52 1010.37 5675.14 1010.37C5689.23 1010.37 5701.81 1013.4 5712.87 1019.47C5724.1 1025.53 5732.76 1034.18 5738.82 1045.42C5745.06 1056.48 5748.18 1069.23 5748.18 1083.68ZM5709.39 1072.98C5709.21 1063.34 5705.73 1055.67 5698.96 1049.97C5692.18 1044.08 5683.88 1041.14 5674.07 1041.14C5664.8 1041.14 5656.95 1043.99 5650.53 1049.7C5644.29 1055.23 5640.45 1062.99 5639.02 1072.98H5709.39ZM5839.74 1035.79C5844.55 1027.94 5850.8 1021.78 5858.47 1017.33C5866.31 1012.87 5875.23 1010.64 5885.22 1010.64V1049.97H5875.32C5863.55 1049.97 5854.63 1052.73 5848.57 1058.26C5842.68 1063.79 5839.74 1073.42 5839.74 1087.16V1161H5802.28V1012.78H5839.74V1035.79ZM6079.01 1012.78L5987.24 1231.1H5947.37L5979.48 1157.25L5920.08 1012.78H5962.09L6000.35 1116.32L6039.14 1012.78H6079.01ZM2658.87 1351.72C2655.39 1345.33 2650.6 1340.47 2644.5 1337.13C2638.4 1333.79 2631.29 1332.12 2623.16 1332.12C2614.15 1332.12 2606.17 1334.15 2599.2 1338.22C2592.23 1342.28 2586.78 1348.09 2582.86 1355.64C2578.94 1363.19 2576.98 1371.9 2576.98 1381.77C2576.98 1391.94 2578.94 1400.79 2582.86 1408.34C2586.93 1415.89 2592.52 1421.7 2599.63 1425.77C2606.75 1429.83 2615.03 1431.87 2624.46 1431.87C2636.08 1431.87 2645.59 1428.82 2652.99 1422.72C2660.4 1416.47 2665.26 1407.84 2667.58 1396.8H2615.32V1373.5H2697.64V1400.07C2695.61 1410.67 2691.25 1420.47 2684.57 1429.47C2677.89 1438.47 2669.25 1445.73 2658.66 1451.25C2648.2 1456.62 2636.44 1459.31 2623.37 1459.31C2608.71 1459.31 2595.42 1456.04 2583.52 1449.51C2571.76 1442.83 2562.47 1433.61 2555.64 1421.85C2548.96 1410.09 2545.62 1396.73 2545.62 1381.77C2545.62 1366.82 2548.96 1353.46 2555.64 1341.7C2562.47 1329.79 2571.76 1320.57 2583.52 1314.04C2595.42 1307.36 2608.64 1304.02 2623.16 1304.02C2640.29 1304.02 2655.17 1308.23 2667.8 1316.65C2680.43 1324.93 2689.15 1336.62 2693.94 1351.72H2658.87ZM2868.08 1305.98V1458H2837.59V1393.32H2772.47V1458H2741.98V1305.98H2772.47V1368.49H2837.59V1305.98H2868.08ZM2998.27 1458L2964.73 1398.76H2950.36V1458H2919.87V1305.98H2976.93C2988.69 1305.98 2998.71 1308.09 3006.98 1312.3C3015.26 1316.36 3021.43 1321.95 3025.5 1329.07C3029.71 1336.04 3031.81 1343.88 3031.81 1352.59C3031.81 1362.61 3028.91 1371.68 3023.1 1379.81C3017.29 1387.8 3008.65 1393.32 2997.18 1396.37L3033.55 1458H2998.27ZM2950.36 1375.89H2975.84C2984.12 1375.89 2990.29 1373.93 2994.35 1370.01C2998.42 1365.95 3000.45 1360.36 3000.45 1353.24C3000.45 1346.27 2998.42 1340.9 2994.35 1337.13C2990.29 1333.21 2984.12 1331.25 2975.84 1331.25H2950.36V1375.89ZM3073.76 1381.77C3073.76 1366.82 3077.1 1353.46 3083.78 1341.7C3090.61 1329.79 3099.83 1320.57 3111.44 1314.04C3123.2 1307.36 3136.34 1304.02 3150.86 1304.02C3167.85 1304.02 3182.73 1308.38 3195.51 1317.09C3208.28 1325.8 3217.21 1337.85 3222.3 1353.24H3187.23C3183.75 1345.98 3178.81 1340.54 3172.42 1336.91C3166.18 1333.28 3158.92 1331.46 3150.64 1331.46C3141.79 1331.46 3133.87 1333.57 3126.9 1337.78C3120.08 1341.85 3114.71 1347.65 3110.79 1355.2C3107.01 1362.75 3105.12 1371.61 3105.12 1381.77C3105.12 1391.79 3107.01 1400.65 3110.79 1408.34C3114.71 1415.89 3120.08 1421.77 3126.9 1425.98C3133.87 1430.05 3141.79 1432.08 3150.64 1432.08C3158.92 1432.08 3166.18 1430.27 3172.42 1426.64C3178.81 1422.86 3183.75 1417.35 3187.23 1410.09H3222.3C3217.21 1425.62 3208.28 1437.75 3195.51 1446.46C3182.88 1455.02 3167.99 1459.31 3150.86 1459.31C3136.34 1459.31 3123.2 1456.04 3111.44 1449.51C3099.83 1442.83 3090.61 1433.61 3083.78 1421.85C3077.1 1410.09 3073.76 1396.73 3073.76 1381.77ZM3300.61 1330.59V1368.71H3351.79V1392.88H3300.61V1433.17H3358.32V1458H3270.12V1305.76H3358.32V1330.59H3300.61ZM3533.97 1459.52C3523.37 1459.52 3513.79 1457.71 3505.22 1454.08C3496.8 1450.45 3490.12 1445.22 3485.19 1438.4C3480.25 1431.57 3477.71 1423.52 3477.56 1414.22H3510.23C3510.67 1420.47 3512.85 1425.4 3516.77 1429.03C3520.83 1432.66 3526.35 1434.48 3533.32 1434.48C3540.43 1434.48 3546.02 1432.81 3550.09 1429.47C3554.15 1425.98 3556.19 1421.48 3556.19 1415.97C3556.19 1411.47 3554.81 1407.76 3552.05 1404.86C3549.29 1401.96 3545.81 1399.7 3541.59 1398.11C3537.53 1396.37 3531.87 1394.48 3524.61 1392.45C3514.73 1389.54 3506.68 1386.71 3500.43 1383.95C3494.33 1381.05 3489.03 1376.76 3484.53 1371.1C3480.18 1365.29 3478 1357.6 3478 1348.02C3478 1339.01 3480.25 1331.17 3484.75 1324.49C3489.25 1317.82 3495.57 1312.73 3503.7 1309.25C3511.83 1305.62 3521.12 1303.8 3531.58 1303.8C3547.26 1303.8 3559.96 1307.65 3569.69 1315.35C3579.56 1322.9 3585.01 1333.5 3586.02 1347.14H3552.48C3552.19 1341.92 3549.94 1337.63 3545.73 1334.3C3541.67 1330.81 3536.22 1329.07 3529.4 1329.07C3523.45 1329.07 3518.65 1330.59 3515.02 1333.64C3511.54 1336.69 3509.8 1341.12 3509.8 1346.93C3509.8 1350.99 3511.1 1354.4 3513.72 1357.16C3516.48 1359.78 3519.82 1361.95 3523.74 1363.7C3527.8 1365.29 3533.46 1367.18 3540.72 1369.36C3550.6 1372.26 3558.65 1375.17 3564.9 1378.07C3571.14 1380.97 3576.51 1385.33 3581.01 1391.14C3585.52 1396.95 3587.77 1404.57 3587.77 1414.01C3587.77 1422.14 3585.66 1429.69 3581.45 1436.66C3577.24 1443.63 3571.07 1449.22 3562.94 1453.43C3554.81 1457.49 3545.15 1459.52 3533.97 1459.52ZM3671.48 1362.39V1420.76C3671.48 1424.82 3672.42 1427.8 3674.31 1429.69C3676.34 1431.43 3679.68 1432.3 3684.33 1432.3H3698.48V1458H3679.32C3653.62 1458 3640.77 1445.51 3640.77 1420.54V1362.39H3626.4V1337.34H3640.77V1307.51H3671.48V1337.34H3698.48V1362.39H3671.48ZM3856.1 1337.34V1458H3825.39V1442.75C3821.47 1447.98 3816.32 1452.12 3809.93 1455.17C3803.68 1458.07 3796.86 1459.52 3789.45 1459.52C3780.02 1459.52 3771.67 1457.56 3764.41 1453.64C3757.15 1449.58 3751.41 1443.7 3747.2 1436C3743.14 1428.16 3741.11 1418.87 3741.11 1408.13V1337.34H3771.6V1403.77C3771.6 1413.35 3773.99 1420.76 3778.78 1425.98C3783.57 1431.07 3790.11 1433.61 3798.38 1433.61C3806.81 1433.61 3813.41 1431.07 3818.2 1425.98C3822.99 1420.76 3825.39 1413.35 3825.39 1403.77V1337.34H3856.1ZM3900.12 1397.24C3900.12 1385.04 3902.52 1374.22 3907.31 1364.79C3912.24 1355.35 3918.92 1348.09 3927.34 1343.01C3935.77 1337.93 3945.13 1335.38 3955.44 1335.38C3963.28 1335.38 3970.76 1337.13 3977.87 1340.61C3984.99 1343.95 3990.65 1348.45 3994.86 1354.11V1296.84H4025.79V1458H3994.86V1440.14C3991.08 1446.09 3985.79 1450.89 3978.96 1454.52C3972.14 1458.15 3964.22 1459.96 3955.22 1459.96C3945.06 1459.96 3935.77 1457.35 3927.34 1452.12C3918.92 1446.89 3912.24 1439.56 3907.31 1430.12C3902.52 1420.54 3900.12 1409.58 3900.12 1397.24ZM3995.08 1397.67C3995.08 1390.27 3993.63 1383.95 3990.72 1378.72C3987.82 1373.35 3983.9 1369.29 3978.96 1366.53C3974.02 1363.62 3968.72 1362.17 3963.06 1362.17C3957.4 1362.17 3952.17 1363.55 3947.38 1366.31C3942.59 1369.07 3938.67 1373.13 3935.62 1378.51C3932.72 1383.73 3931.26 1389.98 3931.26 1397.24C3931.26 1404.5 3932.72 1410.88 3935.62 1416.4C3938.67 1421.77 3942.59 1425.91 3947.38 1428.82C3952.32 1431.72 3957.54 1433.17 3963.06 1433.17C3968.72 1433.17 3974.02 1431.79 3978.96 1429.03C3983.9 1426.13 3987.82 1422.06 3990.72 1416.84C3993.63 1411.47 3995.08 1405.08 3995.08 1397.67ZM4189.51 1395.06C4189.51 1399.41 4189.22 1403.33 4188.63 1406.82H4100.43C4101.16 1415.53 4104.2 1422.36 4109.58 1427.29C4114.95 1432.23 4121.56 1434.7 4129.4 1434.7C4140.72 1434.7 4148.78 1429.83 4153.57 1420.1H4186.46C4182.97 1431.72 4176.29 1441.3 4166.42 1448.85C4156.55 1456.26 4144.42 1459.96 4130.05 1459.96C4118.43 1459.96 4107.98 1457.42 4098.69 1452.34C4089.54 1447.11 4082.35 1439.78 4077.13 1430.34C4072.04 1420.9 4069.5 1410.01 4069.5 1397.67C4069.5 1385.19 4072.04 1374.22 4077.13 1364.79C4082.21 1355.35 4089.32 1348.09 4098.47 1343.01C4107.62 1337.93 4118.14 1335.38 4130.05 1335.38C4141.52 1335.38 4151.76 1337.85 4160.76 1342.79C4169.9 1347.73 4176.95 1354.77 4181.88 1363.91C4186.97 1372.92 4189.51 1383.3 4189.51 1395.06ZM4157.93 1386.35C4157.78 1378.51 4154.95 1372.26 4149.43 1367.62C4143.92 1362.83 4137.16 1360.43 4129.18 1360.43C4121.63 1360.43 4115.24 1362.75 4110.01 1367.4C4104.93 1371.9 4101.81 1378.22 4100.65 1386.35H4157.93ZM4300.4 1335.6C4314.78 1335.6 4326.39 1340.18 4335.25 1349.32C4344.1 1358.32 4348.53 1370.96 4348.53 1387.22V1458H4318.04V1391.36C4318.04 1381.77 4315.65 1374.44 4310.86 1369.36C4306.06 1364.13 4299.53 1361.52 4291.25 1361.52C4282.83 1361.52 4276.15 1364.13 4271.22 1369.36C4266.43 1374.44 4264.03 1381.77 4264.03 1391.36V1458H4233.54V1337.34H4264.03V1352.37C4268.1 1347.14 4273.25 1343.08 4279.49 1340.18C4285.88 1337.13 4292.85 1335.6 4300.4 1335.6ZM4434.81 1362.39V1420.76C4434.81 1424.82 4435.75 1427.8 4437.64 1429.69C4439.67 1431.43 4443.01 1432.3 4447.66 1432.3H4461.81V1458H4442.65C4416.95 1458 4404.1 1445.51 4404.1 1420.54V1362.39H4389.72V1337.34H4404.1V1307.51H4434.81V1337.34H4461.81V1362.39H4434.81ZM4571.79 1381.77C4571.79 1366.82 4575.13 1353.46 4581.81 1341.7C4588.63 1329.79 4597.85 1320.57 4609.47 1314.04C4621.23 1307.36 4634.37 1304.02 4648.89 1304.02C4665.88 1304.02 4680.76 1308.38 4693.54 1317.09C4706.31 1325.8 4715.24 1337.85 4720.32 1353.24H4685.26C4681.78 1345.98 4676.84 1340.54 4670.45 1336.91C4664.21 1333.28 4656.95 1331.46 4648.67 1331.46C4639.81 1331.46 4631.9 1333.57 4624.93 1337.78C4618.11 1341.85 4612.74 1347.65 4608.82 1355.2C4605.04 1362.75 4603.15 1371.61 4603.15 1381.77C4603.15 1391.79 4605.04 1400.65 4608.82 1408.34C4612.74 1415.89 4618.11 1421.77 4624.93 1425.98C4631.9 1430.05 4639.81 1432.08 4648.67 1432.08C4656.95 1432.08 4664.21 1430.27 4670.45 1426.64C4676.84 1422.86 4681.78 1417.35 4685.26 1410.09H4720.32C4715.24 1425.62 4706.31 1437.75 4693.54 1446.46C4680.9 1455.02 4666.02 1459.31 4648.89 1459.31C4634.37 1459.31 4621.23 1456.04 4609.47 1449.51C4597.85 1442.83 4588.63 1433.61 4581.81 1421.85C4575.13 1410.09 4571.79 1396.73 4571.79 1381.77ZM4836.1 1335.6C4845.24 1335.6 4853.37 1337.63 4860.49 1341.7C4867.6 1345.62 4873.12 1351.5 4877.04 1359.34C4881.11 1367.04 4883.14 1376.33 4883.14 1387.22V1458H4852.65V1391.36C4852.65 1381.77 4850.25 1374.44 4845.46 1369.36C4840.67 1364.13 4834.14 1361.52 4825.86 1361.52C4817.44 1361.52 4810.76 1364.13 4805.82 1369.36C4801.03 1374.44 4798.64 1381.77 4798.64 1391.36V1458H4768.15V1296.84H4798.64V1352.37C4802.56 1347.14 4807.78 1343.08 4814.32 1340.18C4820.85 1337.13 4828.11 1335.6 4836.1 1335.6ZM4926.07 1397.24C4926.07 1385.04 4928.47 1374.22 4933.26 1364.79C4938.2 1355.35 4944.8 1348.09 4953.08 1343.01C4961.5 1337.93 4970.87 1335.38 4981.17 1335.38C4990.18 1335.38 4998.02 1337.2 5004.7 1340.83C5011.52 1344.46 5016.96 1349.03 5021.03 1354.55V1337.34H5051.74V1458H5021.03V1440.36C5017.11 1446.02 5011.66 1450.74 5004.7 1454.52C4997.87 1458.15 4989.96 1459.96 4980.96 1459.96C4970.79 1459.96 4961.5 1457.35 4953.08 1452.12C4944.8 1446.89 4938.2 1439.56 4933.26 1430.12C4928.47 1420.54 4926.07 1409.58 4926.07 1397.24ZM5021.03 1397.67C5021.03 1390.27 5019.58 1383.95 5016.67 1378.72C5013.77 1373.35 5009.85 1369.29 5004.91 1366.53C4999.98 1363.62 4994.68 1362.17 4989.01 1362.17C4983.35 1362.17 4978.12 1363.55 4973.33 1366.31C4968.54 1369.07 4964.62 1373.13 4961.57 1378.51C4958.67 1383.73 4957.22 1389.98 4957.22 1397.24C4957.22 1404.5 4958.67 1410.88 4961.57 1416.4C4964.62 1421.77 4968.54 1425.91 4973.33 1428.82C4978.27 1431.72 4983.5 1433.17 4989.01 1433.17C4994.68 1433.17 4999.98 1431.79 5004.91 1429.03C5009.85 1426.13 5013.77 1422.06 5016.67 1416.84C5019.58 1411.47 5021.03 1405.08 5021.03 1397.67ZM5133.79 1354.77C5137.71 1349.25 5143.08 1344.68 5149.9 1341.05C5156.87 1337.27 5164.79 1335.38 5173.64 1335.38C5183.95 1335.38 5193.24 1337.93 5201.52 1343.01C5209.94 1348.09 5216.55 1355.35 5221.34 1364.79C5226.28 1374.08 5228.74 1384.9 5228.74 1397.24C5228.74 1409.58 5226.28 1420.54 5221.34 1430.12C5216.55 1439.56 5209.94 1446.89 5201.52 1452.12C5193.24 1457.35 5183.95 1459.96 5173.64 1459.96C5164.79 1459.96 5156.95 1458.15 5150.12 1454.52C5143.44 1450.89 5138 1446.31 5133.79 1440.79V1515.5H5103.3V1337.34H5133.79V1354.77ZM5197.6 1397.24C5197.6 1389.98 5196.07 1383.73 5193.03 1378.51C5190.12 1373.13 5186.2 1369.07 5181.27 1366.31C5176.47 1363.55 5171.25 1362.17 5165.58 1362.17C5160.07 1362.17 5154.84 1363.62 5149.9 1366.53C5145.11 1369.29 5141.19 1373.35 5138.14 1378.72C5135.24 1384.1 5133.79 1390.41 5133.79 1397.67C5133.79 1404.93 5135.24 1411.25 5138.14 1416.62C5141.19 1421.99 5145.11 1426.13 5149.9 1429.03C5154.84 1431.79 5160.07 1433.17 5165.58 1433.17C5171.25 1433.17 5176.47 1431.72 5181.27 1428.82C5186.2 1425.91 5190.12 1421.77 5193.03 1416.4C5196.07 1411.03 5197.6 1404.64 5197.6 1397.24ZM5308.18 1362.39V1420.76C5308.18 1424.82 5309.12 1427.8 5311.01 1429.69C5313.04 1431.43 5316.38 1432.3 5321.03 1432.3H5335.18V1458H5316.02C5290.32 1458 5277.47 1445.51 5277.47 1420.54V1362.39H5263.1V1337.34H5277.47V1307.51H5308.18V1337.34H5335.18V1362.39H5308.18ZM5491.06 1395.06C5491.06 1399.41 5490.77 1403.33 5490.18 1406.82H5401.98C5402.71 1415.53 5405.75 1422.36 5411.13 1427.29C5416.5 1432.23 5423.11 1434.7 5430.95 1434.7C5442.27 1434.7 5450.33 1429.83 5455.12 1420.1H5488.01C5484.52 1431.72 5477.84 1441.3 5467.97 1448.85C5458.1 1456.26 5445.97 1459.96 5431.6 1459.96C5419.98 1459.96 5409.53 1457.42 5400.24 1452.34C5391.09 1447.11 5383.9 1439.78 5378.68 1430.34C5373.59 1420.9 5371.05 1410.01 5371.05 1397.67C5371.05 1385.19 5373.59 1374.22 5378.68 1364.79C5383.76 1355.35 5390.87 1348.09 5400.02 1343.01C5409.17 1337.93 5419.69 1335.38 5431.6 1335.38C5443.07 1335.38 5453.31 1337.85 5462.31 1342.79C5471.45 1347.73 5478.5 1354.77 5483.43 1363.91C5488.51 1372.92 5491.06 1383.3 5491.06 1395.06ZM5459.48 1386.35C5459.33 1378.51 5456.5 1372.26 5450.98 1367.62C5445.47 1362.83 5438.71 1360.43 5430.73 1360.43C5423.18 1360.43 5416.79 1362.75 5411.56 1367.4C5406.48 1371.9 5403.36 1378.22 5402.2 1386.35H5459.48ZM5565.58 1356.07C5569.5 1349.69 5574.58 1344.68 5580.83 1341.05C5587.21 1337.42 5594.47 1335.6 5602.61 1335.6V1367.62H5594.55C5584.96 1367.62 5577.7 1369.87 5572.77 1374.37C5567.98 1378.87 5565.58 1386.71 5565.58 1397.89V1458H5535.09V1337.34H5565.58V1356.07Z" fill="black"/>
<path d="M1124.32 24.8955C1157.52 -8.29888 1211.34 -8.29865 1244.53 24.8955L2232.91 1013.27C2266.1 1046.47 2266.1 1100.29 2232.91 1133.48L1133.48 2232.91C1100.29 2266.1 1046.47 2266.1 1013.27 2232.91L682.66 1902.3C649.474 1869.11 649.465 1815.31 682.641 1782.11L789.506 1675.17L705.684 1591.35L598.804 1698.23C565.609 1731.43 511.789 1731.43 478.595 1698.23L24.8955 1244.53C-8.29858 1211.34 -8.29883 1157.52 24.8955 1124.32L531.135 618.084C564.329 584.889 618.149 584.89 651.344 618.085L680.489 647.23L779.141 548.578L749.812 518.896C716.956 485.644 717.117 432.103 750.171 399.049L1124.32 24.8955ZM1223.09 224.835C1189.9 191.641 1136.08 191.641 1102.88 224.835L779.141 548.578L1177.8 952.051C1179.38 953.65 1177.8 954.899 1176.19 953.333C1170.79 948.097 1165.05 943.148 1158.97 938.487C1123.08 910.987 1079.93 897.237 1029.52 897.237C1000.35 897.237 973.302 902.059 948.388 911.701C946.893 912.28 945.194 911.936 944.061 910.802L680.489 647.23L281.13 1046.59C247.936 1079.78 247.936 1133.6 281.13 1166.8L705.684 1591.35L960.658 1336.38C961.698 1335.34 963.224 1334.95 964.638 1335.36C984.948 1341.19 1006.58 1344.11 1029.52 1344.11C1079.93 1344.11 1123.08 1330.57 1158.97 1303.49C1162.93 1300.45 1166.75 1297.29 1170.43 1294L789.506 1675.17L1102.88 1988.55C1136.08 2021.75 1189.9 2021.75 1223.09 1988.55L2044.85 1166.8C2078.04 1133.6 2078.04 1079.78 2044.85 1046.59L1223.09 224.835ZM1028.31 994.737C1048.07 994.737 1065.61 999.529 1080.94 1009.11C1096 1018.29 1107.73 1031.48 1116.13 1048.68C1116.82 1050.08 1118.23 1050.99 1119.79 1050.99H1197.6C1199.84 1050.99 1201.64 1052.82 1201.6 1055.06L1199.3 1187.06C1199.26 1189.24 1197.48 1190.99 1195.3 1190.99H1119.79C1118.23 1190.99 1116.82 1191.9 1116.13 1193.3C1107.73 1210.5 1096 1223.69 1080.94 1232.86C1076.08 1235.9 1071 1238.45 1065.7 1240.53C1061.96 1241.99 1059.42 1237.62 1062.26 1234.78L1105.04 1191.99C1138.24 1158.8 1138.24 1104.98 1105.04 1071.78L1028.22 994.96C1028.14 994.878 1028.19 994.737 1028.31 994.737Z" fill="black"/>
<path d="M1028.21 994.654C1047.97 994.654 1065.51 999.446 1080.83 1009.03C1096.56 1018.61 1108.66 1032.57 1117.13 1050.9H1209.56C1222.76 1071.98 1230.26 1096.16 1230.26 1121.86C1230.26 1146.79 1223.2 1170.28 1210.74 1190.9H1117.13C1108.66 1209.24 1096.56 1223.2 1080.83 1232.78C1065.51 1242.36 1047.97 1247.15 1028.21 1247.15C996.349 1247.15 970.54 1235.69 950.78 1212.78C931.021 1189.86 921.141 1159.24 921.141 1120.9C921.141 1082.57 931.021 1051.94 950.78 1029.03C970.54 1006.11 996.349 994.654 1028.21 994.654Z" fill="black"/>
<path d="M1405.07 1190.85L1523.02 887.102H1644.61V1325.85H1541.17V1062.73L1446.2 1325.85H1362.73L1267.16 1062.1V1325.85H1163.72V1299.58C1196.94 1272.47 1219.32 1236.24 1230.87 1190.91H1163.72V1050.91H1230.87C1219.32 1005.58 1196.94 969.352 1163.72 942.235V887.102H1285.91L1405.07 1190.85Z" fill="black"/>
<path d="M832.875 1027.25C821.568 1055.49 815.914 1086.71 815.914 1120.91C815.914 1164.25 824.988 1202.79 843.135 1236.54C861.282 1270.29 886.485 1296.75 918.746 1315.91C924.772 1319.37 930.943 1322.51 937.257 1325.33L944.319 1345.5H834.834L809.429 1268H650.946L625.541 1345.5H517.266L670.908 906.75H790.677L832.875 1027.25ZM678.167 1185.5H782.813L730.188 1024.88L678.167 1185.5Z" fill="black"/>
</svg>
